<svg width="122" height="118" viewBox="0 0 122 118" fill="none" xmlns="http://www.w3.org/2000/svg">
<path d="M0 59.5996V58.0422C1.40121 58.9844 1.26314 57.3804 1.41911 56.9573C2.32939 54.4396 3.01209 51.8388 3.88913 49.3081C5.01419 46.0611 6.26198 42.8581 7.44074 39.6292C8.42432 36.935 9.39766 34.2374 10.3608 31.5362C10.7341 30.498 11.3248 29.4598 11.3657 28.393C11.404 27.3937 11.7646 27.2042 12.5291 27.1549C13.9533 28.0556 15.3929 28.9329 16.7992 29.8621C19.3562 31.5414 21.8773 33.2623 24.4343 34.9338C24.8408 35.1934 25.3599 35.2868 25.8252 35.453L26.3366 35.7125C27.1549 36.4107 27.8836 37.2958 28.8118 37.7682C30.5633 38.6611 30.9417 40.0679 30.8752 41.8562C30.773 44.637 30.721 47.4177 30.7193 50.1984C30.7193 54.6991 30.7806 59.1973 30.8139 63.6954C30.8292 65.4941 30.8599 67.2903 30.8548 69.089C30.8548 70.6126 30.7781 72.1336 30.7934 73.6546C30.8088 75.3703 30.8906 77.0834 30.9417 78.7965V79.056C30.2309 78.4383 29.7374 79.056 29.2183 79.3908C28.2365 80.0475 27.2904 80.7587 26.3034 81.4024C24.1786 82.7859 22.0205 84.1174 19.911 85.5164C17.6813 86.9907 15.4568 88.4805 13.2859 90.0431C12.2171 90.8218 11.8259 90.3571 11.4475 89.3578C10.8185 87.7304 10.123 86.1315 9.46073 84.5171C8.90588 83.0869 8.33823 81.662 7.80383 80.2266C7.45352 79.287 7.15436 78.3267 6.83474 77.3715C5.90145 74.6098 4.98095 71.8455 4.02209 69.089C3.35473 67.1605 2.70526 65.2216 1.92794 63.3398C1.39865 62.0498 0.652024 60.8455 0 59.5996Z" fill="#30107F"/>
<path d="M0 59.5996C0.652024 60.8455 1.39865 62.0498 1.93562 63.345C2.7027 65.2268 3.3624 67.1657 4.02976 69.0942C4.98095 71.8507 5.90145 74.615 6.84241 77.3767C7.16203 78.3267 7.4612 79.287 7.8115 80.2318C8.3459 81.6698 8.91355 83.087 9.4684 84.5223C9.51699 84.9739 9.4863 85.4541 9.63205 85.8694C10.2917 87.7616 11 89.6356 11.7825 91.7588C13.0149 91.0164 14.3164 90.2949 15.5514 89.4695C18.809 87.2918 22.0231 85.0414 25.2857 82.8715C27.1395 81.6386 29.0572 80.507 30.9468 79.3312L31.7139 80.3694C30.6502 80.8729 29.5226 81.2753 28.5331 81.8982C26.0733 83.4555 23.6748 85.1011 21.2585 86.7156C19.0979 88.1587 16.9654 89.6512 14.7715 91.0398C13.7027 91.7147 12.7439 92.7347 11.2992 92.5686L5.90657 77.3481C4.93748 74.602 3.01976 69.3616 0.511391 62.1225C0.296607 61.497 0.11762 60.9805 0 60.6327V59.5996Z" fill="#2E107A"/>
<path d="M78.6676 0.282862L79.3196 0.54242L78.2432 0.679985C77.7318 1.11604 77.0261 1.45866 76.7934 2.01151C76.4022 2.93035 76.3408 3.98675 76.1107 4.97826C75.0393 9.61914 73.8657 14.2367 72.9247 18.9009C72.5795 20.6114 71.8303 21.5354 70.2322 22.0416C65.2538 23.6197 60.301 25.2731 55.338 26.9005C52.3958 27.866 49.4536 28.8316 46.5113 29.7971C43.0492 30.9366 39.5846 32.0735 36.1301 33.2363C35.1917 33.5529 34.9999 34.2901 35.542 35.2011V35.7202L35.0306 36.4989H34.7749V35.9798C34.7749 35.6346 34.8031 35.2842 34.7749 34.9416C34.6547 33.6879 35.092 32.8937 36.3909 32.6055C37.3344 32.3901 38.2422 32.0008 39.1652 31.6893C44.1053 30.0178 49.0376 28.3151 53.9956 26.685C59.5186 24.8681 65.0544 23.0928 70.5953 21.3304C71.5286 21.0345 71.9684 20.4686 72.1295 19.5135C72.3852 18.034 72.7253 16.5701 73.0602 15.101C74.014 10.9637 74.9473 6.81852 75.9777 2.69934C76.1797 1.89212 76.7806 1.18872 77.1999 0.436001L77.246 0.399663L77.8059 0.241333L78.6676 0.282862Z" fill="#7129FD"/>
<path d="M2.50326 50.162C3.5141 47.8622 4.37843 45.4988 5.0909 43.0865C7.26687 35.6787 9.0823 31.749 11.2659 25.6312C11.381 25.3094 11.7441 25.0758 11.9921 24.8007L12.2734 25.5949C12.2734 25.7688 12.2734 25.9427 12.2734 26.114C12.3603 26.4592 12.4447 26.8044 12.5291 27.1522C11.762 27.2016 11.404 27.391 11.3657 28.3903C11.3248 29.4493 10.7341 30.4902 10.3608 31.5336C9.39425 34.233 8.4209 36.9306 7.44074 39.6266C6.26198 42.8555 5.01419 46.0584 3.88913 49.3055C3.01209 51.8362 2.32939 54.4369 1.41911 56.9546C1.26314 57.3777 1.40121 58.9818 0 58.0396C0.833567 55.4146 1.66799 52.7887 2.50326 50.162Z" fill="#321183"/>
<path d="M43.4678 0.19726L45.9097 0.150539C61.2693 -0.192076 66.7642 0.150539 75.7954 0.171304C76.2811 0.208434 76.7633 0.283934 77.2375 0.397119L77.1915 0.433457C75.7033 0.487964 74.2152 0.589192 72.7296 0.584C69.3416 0.584 65.9562 0.485369 62.5708 0.480177C59.4181 0.480177 56.2679 0.532089 53.1101 0.571023C50.6988 0.599574 48.2851 0.685228 45.8739 0.656676C45.0735 0.646294 44.2707 0.358185 43.4678 0.19726Z" fill="#6A23FD"/>
<path d="M41.678 117.481C40.1439 116.51 38.5406 115.648 37.1062 114.553C29.916 109.063 22.7745 103.514 15.6278 97.983C15.5363 97.8974 15.4509 97.8055 15.3721 97.7079C16.3002 97.2147 17.2898 96.8176 18.1387 96.2102C19.9286 94.9358 21.9562 94.0689 23.5569 92.4362C24.6564 91.3124 26.2442 90.6816 27.6148 89.8277C28.704 89.1476 29.8112 88.491 30.8698 87.7642C31.1459 87.5747 31.2763 87.162 31.4732 86.8532L31.8568 87.2814C32.5855 86.8194 33.2733 86.373 33.9688 85.9395C34.4291 85.654 34.9174 85.1349 35.3598 85.1608C36.0962 85.2154 36.7942 85.68 37.5281 85.8876C39.254 86.4067 40.9902 86.8765 42.7238 87.3671H42.9795C43.1329 87.5462 43.2506 87.8239 43.4398 87.8862C46.0913 88.7687 48.7506 89.6252 51.4098 90.4818C53.7443 91.2371 56.089 91.9613 58.4159 92.7451C60.0216 93.2876 61.589 93.9521 63.1974 94.4841C65.0972 95.1175 67.0098 95.7274 68.9454 96.2362C70.4208 96.6229 71.9473 96.8098 73.4405 97.1316C73.98 97.2484 74.6704 97.3445 74.9747 97.7182C75.3761 98.2114 75.504 98.9563 75.6676 99.6156C75.7571 99.9842 75.683 100.394 75.683 100.887C76.2557 101.129 77.0867 104.129 76.7058 105.188L77.4728 105.78L77.1302 105.85V107.989H77.3859L77.6416 107.597C77.8539 108.037 77.9616 108.522 77.9561 109.012C78.02 110.006 77.7899 111.187 78.2425 111.947C78.892 113.043 78.8638 114.109 78.9917 115.249C79.0863 116.116 79.4059 116.975 80.6537 116.663C81.0091 116.575 81.4438 116.809 81.8401 116.894L80.5437 117.484C80.3366 117.336 80.1346 117.068 79.9224 117.06C78.3422 117.009 76.7569 116.98 75.1767 117.001C72.9266 117.029 70.6816 117.154 68.434 117.151C65.0384 117.151 61.6453 117.027 58.2497 117.019C54.0136 117.009 49.7751 117.036 45.5339 117.102C44.2478 117.125 42.9565 117.349 41.678 117.481Z" fill="#260D66"/>
<path d="M112.028 89.0282C111.468 90.6452 110.931 92.2727 110.327 93.8715C110.176 94.2687 109.816 94.5801 109.537 94.9305L103.556 99.3119C103.291 99.4243 103.034 99.558 102.789 99.7116C101.081 100.955 99.3809 102.211 97.6754 103.465C97.476 102.998 97.274 102.533 97.1027 102.128L95.525 102.442C95.5455 102.73 95.5685 103.044 95.5813 103.221L96.7575 103.402L95.323 105.004C95.0852 105.264 94.8449 105.539 94.6071 105.809L94.3514 106.068L93.1036 105.788C93.436 107.363 92.3979 107.086 91.3546 106.855L91.9044 107.651L90.6259 108.316L91.035 107.35C90.8074 107.402 90.5236 107.379 90.4265 107.503C89.7386 108.368 89.0073 108.113 88.2275 107.672C87.2584 107.127 86.389 107.241 85.6705 108.145C85.806 107.685 85.9416 107.228 86.0822 106.759C84.9648 106.335 84.1364 107.457 84.4023 109.204L82.8681 109.442C81.8453 104.835 80.8225 100.225 79.7537 95.6339C79.6821 95.3276 79.1119 95.146 78.7744 94.9072L79.7972 93.8689C79.7972 93.7807 79.7972 93.695 79.7972 93.6094C80.104 93.4069 80.4978 93.272 80.7049 92.9942C82.2519 90.9178 83.7579 88.8413 85.2819 86.7441C85.5734 86.3444 85.8853 85.9654 86.187 85.5631L87.6777 86.2302C87.711 85.5839 87.7493 84.8104 87.7902 84.0395L88.0741 83.9616C88.2761 84.665 88.4755 85.3684 88.7465 86.3184C89.2119 86.6169 89.8614 86.687 90.6182 85.9966C90.8739 85.7552 92.0655 85.9966 92.0757 86.103C92.1703 87.0737 92.8198 86.8323 93.1726 86.5546C93.4616 86.3262 93.5792 85.7578 93.6048 85.3321C93.6303 84.9064 93.436 84.5119 93.3158 84.1096C93.2928 84.0317 93.165 83.9902 92.9783 83.85C92.9502 84.3224 92.9297 84.6624 92.9093 85.0024C91.4569 84.9168 89.7821 83.292 89.5699 81.8878C89.2324 82.2927 88.8769 82.7235 88.5215 83.1544L88.2326 82.926L90.0225 79.8528C90.4725 79.178 90.9532 78.5213 91.3674 77.8257C91.8788 76.9588 92.3467 76.0633 92.8351 75.1782L95.1364 72.0635L96.9262 69.9871L98.128 71.6171C99.6366 70.9552 99.8897 69.6652 99.2863 68.1182C99.7108 68.0118 100.053 67.8379 100.365 67.8587C101.306 67.9391 101.797 67.7938 101.465 66.6258C101.286 66.0003 102.181 65.302 102.388 65.5175C103.099 66.2702 103.073 65.1463 103.689 65.1619C103.257 65.9406 102.91 66.5531 102.564 67.1734L103.03 67.5576C103.641 67.0151 104.49 66.5843 104.802 65.9016C105.155 65.1229 105.027 64.1314 105.108 63.2308C106.806 63.3242 108.504 63.4099 110.199 63.5111C110.767 63.5448 111.332 63.6668 111.897 63.6539C114.454 63.5968 117.011 63.4955 119.555 63.4462C119.714 63.4462 119.88 63.7291 119.842 63.7058L121.261 63.0776C118.475 71.5842 115.461 80.1634 112.217 88.8153C111.859 89.7653 111.501 90.711 111.143 91.6523C111.325 90.1028 111.627 88.5702 112.046 87.0685C112.24 86.3755 112.45 85.7214 112.669 85.1037L110.565 83.3776C110.836 83.0376 111.105 82.7028 111.37 82.3653L111.143 82.0539L109.685 82.7754C109.744 82.8585 109.685 82.7261 109.599 82.6638C109.512 82.6015 109.389 82.6638 109.202 82.6638C109.228 83.754 108.985 84.8753 110.256 85.493L109.744 86.0848L107.699 83.3153C106.732 83.9876 106.42 83.863 105.837 82.3835C105.433 83.3646 105.096 84.1771 104.607 85.358C105.755 84.6858 106.625 83.7799 107.489 84.8389C107.354 85.2776 107.233 85.6462 107.131 86.0147L107.619 85.8304C107.798 86.1327 107.992 86.4256 108.2 86.7077C108.481 87.0581 108.952 87.3281 109.072 87.7174C109.404 88.7868 109.839 88.9867 110.478 88.1639L112.028 89.0282ZM108.448 74.6799L106.272 76.1308L106.344 76.3748L107.655 75.9335C107.691 76.4708 107.558 77.0678 107.791 77.4078C108.131 77.901 108.665 77.9269 108.88 77.1482L109.68 77.4078C109.41 77.7184 109.12 78.0114 108.814 78.2851C108.629 78.3804 108.429 78.4402 108.223 78.4616C108.353 78.6926 108.438 79.0742 108.622 79.1313C109.222 79.3473 109.852 79.4647 110.488 79.4791C111.186 79.4583 111.959 79.3675 112.534 79.03C112.935 78.7964 113.436 78.0074 112.278 77.8439C112.212 77.8439 112.171 77.6544 112.061 77.4415L113.058 77.2417L112.841 75.6636L112.217 76.5253L111.194 76.0529C111.156 77.1457 111.774 78.2384 110.992 78.8224C110.514 77.9607 110.079 77.1768 109.519 76.1723L111.634 75.2119C112.687 74.7344 112.912 73.6416 112.084 73.0005C113.523 71.7702 112.166 70.6775 111.851 69.5666C111.767 69.2733 111.112 69.1461 110.629 68.8969L111.37 70.6853L111.038 70.8306L109.575 69.2733L108.977 70.1817L107.683 69.1694L105.909 70.3998L106.694 71.56L108.259 70.963L109.593 73.2834H109.026V75.3339L108.77 75.3781L108.448 74.6799Z" fill="#3A149A"/>
<path d="M81.8225 116.905C81.4262 116.819 80.9915 116.585 80.6361 116.674C79.3883 116.985 79.0687 116.126 78.9741 115.259C78.8462 114.12 78.8743 113.053 78.2249 111.958C77.7723 111.197 78.0024 110.016 77.9385 109.022C77.944 108.532 77.8363 108.047 77.624 107.607L77.3683 107.999H77.1126V105.861L77.4552 105.79L76.6882 105.199C77.0743 104.14 76.2432 101.139 75.6654 100.898C75.6654 100.407 75.7395 99.9945 75.65 99.6259C75.4864 98.9667 75.3585 98.2217 74.9571 97.7286C74.6554 97.3548 73.965 97.2588 73.4229 97.142C71.9297 96.8201 70.4032 96.6229 68.9278 96.2465C66.9922 95.7274 65.0796 95.1278 63.1798 94.4945C61.5714 93.9624 60.004 93.2979 58.3983 92.7555C56.0714 91.9768 53.7267 91.2474 51.3922 90.4921C48.733 89.633 46.0737 88.7765 43.4222 87.8966C43.233 87.8343 43.1153 87.5565 42.9619 87.3774C44.1253 87.6733 45.2811 87.9952 46.4522 88.2547C46.9896 88.3424 47.5318 88.3961 48.0758 88.4157C48.5258 88.5922 48.9708 88.792 49.4285 88.9348C51.4305 89.5967 53.448 90.2118 55.4399 90.9048C57.9712 91.7899 60.4719 92.7607 63.0033 93.6406C65.21 94.4192 67.4243 95.1616 69.6514 95.8208C71.8607 96.4678 74.1541 96.7698 76.4529 96.7163C76.6268 96.9162 76.8978 97.0927 76.9643 97.3237C77.2711 98.5228 77.5013 99.7428 77.7979 100.957C78.2709 102.873 78.8207 104.77 79.263 106.691C79.9201 109.474 80.5185 112.272 81.1603 115.059C81.352 115.887 81.7816 116.282 82.5973 115.674H83.395L81.8225 116.905Z" fill="#270D67"/>
<path d="M82.7432 2.15173C83.6151 2.7565 84.9345 3.67534 86.5223 4.81998C95.4461 11.257 94.7046 11.0987 99.0003 14.4418C102.239 16.9681 105.463 19.5205 108.671 22.0987C109.011 22.3583 109.2 22.8333 109.458 23.207C109.505 23.4585 109.566 23.7072 109.64 23.952C111.251 28.5306 112.865 33.1057 114.483 37.6774C116.288 42.7699 118.101 47.8607 119.921 52.9497C120.269 53.936 120.594 54.9327 120.972 56.0488C119.921 56.2098 119.098 56.4434 118.272 56.4408C113.861 56.4408 109.448 56.3707 105.037 56.3395C104.371 56.295 103.702 56.3333 103.045 56.4538C102.585 56.568 102.196 56.9729 101.767 57.2636V57.004C101.89 56.8327 102.107 56.6692 102.122 56.4849C102.214 55.4726 102.705 55.1715 103.705 55.2131C105.533 55.2909 107.369 55.1793 109.203 55.1871C110.939 55.1871 112.677 55.3039 114.414 55.2754C116.273 55.2442 118.134 55.1066 120.111 55.0158C119.834 54.0658 119.622 53.3287 119.41 52.5941C118.523 50.188 117.62 47.7897 116.751 45.3758C115.572 42.0743 114.426 38.7623 113.271 35.4556C112.452 33.1195 111.573 30.7835 110.847 28.4164C109.862 25.2056 108.753 22.187 105.503 20.4999C104.206 19.8276 103.148 18.6829 101.977 17.7589C100.514 16.6065 99.0642 15.4359 97.5761 14.3172C96.3794 13.4165 95.1009 12.6249 93.9171 11.706C91.5826 9.88914 89.289 8.02292 86.9749 6.18266C85.8575 5.29497 84.7325 4.41767 83.6125 3.53777L83.1011 3.01866L82.7432 2.15173Z" fill="#762BFE"/>
<path d="M101.767 57.2636C102.189 56.9832 102.578 56.568 103.046 56.4537C103.703 56.3333 104.372 56.295 105.038 56.3395C109.448 56.3707 113.862 56.4382 118.272 56.4408C119.098 56.4408 119.922 56.2098 120.973 56.0488C120.594 54.9327 120.269 53.936 119.922 52.9497C118.113 47.8589 116.303 42.7681 114.491 37.6774C112.87 33.1074 111.255 28.5323 109.648 23.952C109.574 23.7072 109.513 23.4585 109.466 23.207C110.302 25.0836 111.233 26.9239 111.957 28.8446C113.371 32.5952 114.68 36.3848 116.015 40.1639C117.349 43.9431 118.638 47.6911 119.957 51.4417C120.43 52.7862 120.934 54.1203 121.425 55.4596C121.394 57.2454 120.295 57.3129 118.883 57.2921C113.905 57.2168 108.927 57.2921 103.948 57.2454C102.961 57.2454 102.414 57.5543 102.286 58.5614C102.115 58.7327 101.946 58.9066 101.775 59.0805H101.008C101.348 58.6029 102.35 58.4653 101.775 57.5231L101.767 57.2636Z" fill="#6D27FC"/>
<path d="M48.0707 88.4104C47.5268 88.3909 46.9845 88.3371 46.4471 88.2495C45.276 87.99 44.1202 87.6681 42.9568 87.3722H42.7011C41.5377 86.8661 40.3999 86.2301 39.2007 85.8875C37.3571 85.3684 35.5698 84.2264 33.5447 84.9246C32.6114 85.2464 31.6986 85.7032 31.4505 86.8531C30.9698 86.8349 30.3638 86.6247 30.034 86.8531C29.3794 87.2917 28.9447 88.0626 28.2978 88.5194C26.5463 89.7498 24.7411 90.8944 22.9282 92.052C21.9259 92.6983 20.7804 93.1681 19.9059 93.9546C18.7035 95.0567 17.264 95.8584 15.7022 96.2958C15.3468 96.3944 15.109 96.9291 14.8175 97.2639L13.5391 96.1998C13.6413 96.0674 13.759 95.8078 13.8459 95.8182C15.9733 96.0388 17.3055 94.3647 18.8933 93.4666C21.4503 92.0209 23.7515 90.1131 26.1806 88.426C27.5384 87.4812 28.9447 86.6091 30.2948 85.6539C31.9543 84.4781 33.6853 83.5775 35.7922 83.728L39.6277 85.0258C39.6277 85.1789 39.5817 85.4541 39.6277 85.4645C40.5354 85.7396 41.4712 85.9291 42.3636 86.2431C44.2762 86.9517 46.1684 87.6889 48.0707 88.4104Z" fill="#280D6A"/>
<path d="M41.6787 117.481C42.9572 117.349 44.251 117.125 45.5397 117.102C49.7791 117.031 54.0177 117.003 58.2555 117.019C61.6511 117.019 65.0442 117.144 68.4398 117.151C70.6874 117.151 72.9324 117.029 75.1825 117.001C76.7627 116.98 78.348 117.001 79.9282 117.06C80.1404 117.06 80.3424 117.336 80.5495 117.484C79.693 117.655 78.8338 117.974 77.9772 117.977C66.696 118.011 55.4155 118.011 44.1359 117.977C43.3126 117.974 42.4944 117.655 41.6787 117.481Z" fill="#260D63"/>
<path d="M101.767 59.0804C101.938 58.9065 102.107 58.7326 102.278 58.5613C102.79 57.8813 103.462 57.7255 104.275 57.767C105.679 57.8397 107.088 57.8319 108.494 57.8345C112.705 57.8345 116.909 57.8345 121.108 57.8345C121.312 57.2609 121.496 56.747 121.683 56.2305L121.939 58.5665C121.049 58.7404 120.149 59.0545 119.267 59.0622C114.173 59.109 109.082 59.0622 103.991 59.109C103.505 59.109 103.025 59.4308 102.541 59.6021L98.7061 60.1212V59.8617L101.767 59.0804Z" fill="#6624FD"/>
<path d="M35.7975 83.7384C33.6906 83.5775 31.9621 84.4885 30.3001 85.6643C28.95 86.6221 27.5437 87.4812 26.186 88.4364C23.7594 90.1235 21.4581 92.0313 18.8986 93.477C17.3108 94.3751 15.9786 96.0492 13.8512 95.8286C13.7643 95.8286 13.6466 96.0882 13.5444 96.2102L12.5625 95.159C13.9433 95.3458 15.076 94.8708 16.1576 93.9883C16.9886 93.3109 17.9935 92.8567 18.9216 92.3038C19.0239 92.3557 19.1773 92.4803 19.2208 92.4492C20.2998 91.7691 21.3968 91.1099 22.4272 90.3597C23.0791 89.8321 23.7014 89.268 24.2913 88.67C25.4419 87.6084 26.8993 87.0011 28.073 85.9447C28.9833 85.1219 30.1492 84.6028 31.1413 83.8682C31.8207 83.3888 32.6232 83.1211 33.4504 83.0981C34.2775 83.075 35.0933 83.2976 35.7975 83.7384Z" fill="#290E6C"/>
<path d="M35.7976 83.7384C35.0936 83.2972 34.278 83.0741 33.4508 83.0967C32.6237 83.1193 31.8211 83.3865 31.1414 83.8656C30.1493 84.6027 28.9833 85.1218 28.0731 85.942C26.8994 86.9984 25.442 87.6058 24.2913 88.6674C23.4782 89.0411 22.591 89.3085 21.8699 89.8172C20.8241 90.5544 19.8985 91.4654 18.9217 92.3012C17.9936 92.854 16.9887 93.3083 16.1577 93.9857C15.0761 94.8682 13.9433 95.3432 12.5626 95.1563C12.5447 95.1226 12.5293 95.0862 12.5114 95.0499C12.451 94.9247 12.3989 94.7955 12.3555 94.6632C12.6048 94.6546 12.8529 94.6242 13.097 94.5723C13.1614 94.5491 13.2284 94.5343 13.2964 94.5282C14.1274 94.5152 14.6516 94.1804 14.8306 93.3394C15.2065 93.2823 15.6514 93.3394 15.9454 93.1474C17.991 91.8158 20.0366 90.4298 22.0821 89.0645C24.3834 87.5279 26.6846 86.0147 28.9424 84.4548C30.6403 83.2894 32.3125 82.1188 34.5319 82.6976C35.7695 83.1284 37.0122 83.5437 38.237 83.9954C39.0603 84.3042 39.8606 84.678 40.6686 85.0336H39.6458L35.7976 83.7384Z" fill="#2A0E6F"/>
<path d="M11.292 92.5633C12.7367 92.7295 13.6955 91.7094 14.7643 91.0345C16.9582 89.6459 19.0907 88.1535 21.2513 86.7103C23.6677 85.0959 26.0661 83.4451 28.5259 81.8929C29.5154 81.27 30.643 80.8677 31.7067 80.3641L32.4738 81.1428C31.6812 81.3401 30.7964 81.3686 30.1163 81.7657C28.3699 82.7832 26.69 83.9279 25.0305 85.0933C24.0538 85.7811 23.1716 86.6065 22.246 87.3722L19.4333 89.1891C19.0097 89.3566 18.5986 89.5553 18.2034 89.7835C16.1349 91.1799 14.1788 92.7762 11.6858 93.3732L11.292 92.5633Z" fill="#2D0F77"/>
<path d="M121.966 60.8922L121.68 61.9304C120.9 62.19 120.123 62.6624 119.338 62.6728C114.109 62.7377 108.877 62.6987 103.646 62.7169C103.103 62.7614 102.565 62.8482 102.035 62.9765C101.682 63.2075 101.247 63.3736 100.989 63.6876C100.358 64.4507 99.8053 65.2865 99.2223 66.0911H98.7109C99.4934 64.5987 100.156 63.0076 101.779 62.1978C102.443 62.0704 103.115 61.9837 103.789 61.9382C108.857 61.9175 113.93 61.8993 118.998 61.9382C120.148 61.9694 121.164 61.824 121.966 60.8922Z" fill="#4417B6"/>
<path d="M78.2433 0.680064L79.0104 0.462036C79.704 0.611882 80.3807 0.832772 81.0304 1.12131C81.5717 1.36127 82.0918 1.64783 82.585 1.97785H81.823L79.5218 1.19918C78.8646 1.15765 78.2817 1.14208 78.0822 2.02976C77.5325 4.48518 76.9009 6.92242 76.3333 9.37524C75.423 13.3075 74.5434 17.2476 73.6408 21.1851H73.3851L72.618 21.4447H72.3623C72.7893 20.4064 73.3646 19.3993 73.6203 18.33C74.707 13.741 75.6531 9.11828 76.7475 4.53449C77.0645 3.19518 76.9648 1.64302 78.2433 0.680064Z" fill="#7B2DFE"/>
<path d="M14.8301 97.2744C15.1216 96.9395 15.3594 96.4049 15.7148 96.3062C17.283 95.8646 18.7272 95.0556 19.9312 93.9442C20.8057 93.1656 21.9512 92.688 22.9535 92.0417C24.7434 90.8841 26.5588 89.7394 28.3231 88.5091C28.97 88.0523 29.4047 87.2814 30.0593 86.8428C30.3891 86.6247 30.9951 86.8428 31.4759 86.8428C31.279 87.1516 31.1486 87.5643 30.8724 87.7538C29.8138 88.4806 28.7067 89.1372 27.6174 89.8173C26.2469 90.6712 24.659 91.302 23.5595 92.4258C21.9589 94.0584 19.9286 94.9254 18.1413 96.1998C17.2924 96.8072 16.3029 97.2043 15.3747 97.6974L14.8301 97.2744Z" fill="#270D67"/>
<path d="M121.967 60.8922C121.177 61.824 120.162 61.9693 118.998 61.9564C113.931 61.907 108.858 61.9252 103.79 61.9564C103.115 62.0019 102.444 62.0885 101.78 62.2159C101.192 62.5482 100.542 62.8051 100.026 63.2282C99.3846 63.8082 98.7752 64.4234 98.2002 65.0711C98.4429 64.8304 98.652 64.557 98.8215 64.2586C99.9057 61.5151 102.294 61.2426 104.677 61.2036C109.66 61.1206 114.649 61.1855 119.633 61.1673C120.081 61.1224 120.524 61.0356 120.957 60.9078L122.013 60.6482L121.967 60.8922Z" fill="#4B19C6"/>
<path d="M81.8221 1.97778H82.5713L83.1006 2.51766V3.01601C83.1074 3.27643 83.092 3.53697 83.0545 3.79469C81.684 9.81123 80.2981 15.8226 78.9378 21.8417C78.7231 22.8021 78.8432 23.7131 79.7765 24.3049V24.824L78.498 23.0071C78.5032 22.2172 78.5561 21.4284 78.6566 20.6452C78.8228 19.7107 79.168 18.8101 79.3751 17.8809C79.7382 16.2119 80.0373 14.5274 80.3979 12.8532C81.0473 9.75672 81.7275 6.66539 82.3514 3.56368C82.4179 3.24183 82.1826 2.85768 82.0957 2.50209H81.84L81.8221 1.97778Z" fill="#8030FD"/>
<path d="M102.022 62.9739C102.552 62.8456 103.091 62.7588 103.633 62.7143C108.865 62.6961 114.096 62.7351 119.325 62.6702C120.11 62.6702 120.888 62.1874 121.668 61.9279C121.524 62.3051 121.383 62.6814 121.243 63.0569L119.824 63.6851C119.862 63.7214 119.696 63.4255 119.538 63.4255C116.981 63.4748 114.424 63.576 111.88 63.6332C111.314 63.6461 110.749 63.5241 110.182 63.4904C108.486 63.3892 106.789 63.3035 105.091 63.2101H102.022V62.9739Z" fill="#3B149C"/>
<path d="M122 60.6326L120.944 60.8922C117.845 60.8922 114.738 60.7676 111.644 60.9077C108.011 61.0713 104.329 60.2848 100.734 61.5774C99.9232 61.8707 99.2737 62.0965 98.8518 62.8752C98.5833 63.3632 98.2407 63.8044 97.9313 64.2664L97.4199 64.526L99.2098 61.4113C99.5448 61.3698 99.8848 61.3568 100.215 61.2841C102.222 60.8455 104.168 60.2589 106.298 60.3263C110.931 60.4769 115.574 60.386 120.213 60.3497C120.627 60.3497 121.041 60.0253 121.455 59.8539L121.711 59.3348L122 58.8027V60.6326Z" fill="#531ED9"/>
<path d="M121.683 56.233C121.496 56.7522 121.312 57.2713 121.108 57.8371C116.918 57.8371 112.713 57.8371 108.494 57.8371C107.088 57.8371 105.682 57.8371 104.275 57.7696C103.462 57.7281 102.785 57.8838 102.278 58.5639C102.398 57.5568 102.953 57.2401 103.94 57.2479C108.919 57.2868 113.897 57.2194 118.876 57.2946C120.287 57.3154 121.386 57.2479 121.417 55.4622C121.507 55.7165 121.594 55.9761 121.683 56.233Z" fill="#6A26FE"/>
<path d="M11.6855 93.3732C14.1786 92.7762 16.1346 91.18 18.2032 89.7835C18.5984 89.5553 19.0095 89.3567 19.4331 89.1891C19.6719 89.1232 19.9144 89.0721 20.1593 89.036C20.2539 89.036 20.3562 89.1346 20.4559 89.1891C19.4101 89.8977 18.3439 90.5778 17.3262 91.3253C16.4645 91.956 15.6591 92.6672 14.8306 93.3421L12.018 94.1L11.6855 93.3732Z" fill="#2C0F73"/>
<path d="M94.3518 106.06L94.6075 105.801H95.1189V106.346L90.2863 110.224C89.904 110.335 89.5332 110.484 89.1791 110.667C88.2407 111.267 87.3355 111.919 86.415 112.552C86.7553 112.179 87.1147 111.825 87.4915 111.49C89.7774 109.671 92.0659 107.869 94.3518 106.06Z" fill="#34118D"/>
<path d="M121.997 58.8053L121.711 59.3374C115.986 59.3374 110.263 59.3374 104.538 59.3374C103.866 59.3829 103.198 59.4695 102.536 59.5969C103.019 59.4256 103.5 59.1064 103.986 59.1038C109.077 59.0648 114.168 59.1038 119.261 59.057C120.154 59.057 121.051 58.7352 121.933 58.5613C121.962 58.6404 121.983 58.7221 121.997 58.8053Z" fill="#6227F5"/>
<path d="M103.557 99.3119L109.538 94.9176C108.804 95.6677 108.131 96.4983 107.326 97.155C106.047 98.1932 104.672 99.138 103.337 100.119L103.283 100.08C103.373 99.8232 103.465 99.5689 103.557 99.3119Z" fill="#30117C"/>
<path d="M86.4253 112.552C87.3458 111.919 88.2509 111.267 89.1893 110.667C89.5434 110.484 89.9142 110.335 90.2965 110.224C88.6549 111.521 87.0134 112.85 85.3641 114.156C84.7147 114.675 84.0473 115.168 83.3876 115.674H82.5898L83.3569 115.155L83.6126 114.896L84.124 114.377L84.6559 113.598L86.4253 112.552Z" fill="#290D6E"/>
<path d="M95.1191 106.346V105.801L95.8862 105.282L99.7217 102.686C99.7217 102.782 99.7217 102.878 99.7217 102.974L95.1191 106.346Z" fill="#290B6F"/>
<path d="M12.0176 94.1L14.8302 93.342C14.6512 94.183 14.1271 94.5178 13.2961 94.5308C13.0404 94.5308 12.7847 94.7904 12.5111 94.9357L12.0176 94.1Z" fill="#2B0E71"/>
<path d="M99.7217 102.974C99.7217 102.878 99.7217 102.782 99.7217 102.686L103.284 100.091L103.337 100.13L99.7217 102.974Z" fill="#280C6E"/>
<path d="M12.2734 26.1166C12.2734 25.9427 12.2734 25.7688 12.2734 25.5975L14.8304 26.8953L18.9215 29.4909L23.7797 32.8651C24.4829 33.3843 25.2091 33.9034 25.8841 34.4614C27.83 36.0863 30.5685 36.7403 31.7063 39.3541V78.5472H31.4506C31.4506 66.0591 31.4506 53.5726 31.4506 41.0879C31.4068 40.59 31.3213 40.0968 31.1949 39.6136C30.3102 37.3711 27.9348 37.0466 26.3367 35.7203L25.8253 35.4607C24.6363 34.599 23.4652 33.7061 22.2456 32.8651C18.9369 30.607 15.5975 28.367 12.2734 26.1166Z" fill="#3B139E"/>
<path d="M32.4736 81.1429L31.7065 80.3642L30.9395 79.326V78.8069L31.4508 79.0664C32.783 80.9586 34.6266 82.1811 36.731 82.9468C41.0778 84.5197 45.4476 86.0148 49.8302 87.4709C52.2849 88.2885 54.7907 88.9478 57.2607 89.7135C59.406 90.378 61.5334 91.0917 63.6685 91.79L64.4356 92.0495L67.5039 93.3473L64.6913 92.8282L49.8251 88.0108L40.6559 85.0363C39.8479 84.6885 39.0476 84.3147 38.2242 83.998C36.9994 83.5386 35.7568 83.1233 34.5192 82.7002L33.4964 81.9216L32.4736 81.1429Z" fill="#2F0F80"/>
<path d="M30.9394 79.0664V79.326C29.0498 80.5017 27.1321 81.6334 25.2783 82.8663C22.0156 85.0362 18.8015 87.2788 15.5439 89.4643C14.3089 90.2897 13.0074 91.0216 11.775 91.7536C10.9926 89.6304 10.2843 87.7564 9.62458 85.8642C9.47884 85.4489 9.50952 84.9687 9.46094 84.5171C10.1232 86.1315 10.8187 87.7356 11.44 89.3682C11.8185 90.3675 12.2071 90.8269 13.2785 90.0535C15.4493 88.4961 17.6739 87.0011 19.9035 85.5268C22.0181 84.1278 24.1762 82.7962 26.2959 81.4128C27.2829 80.7691 28.229 80.0579 29.2109 79.4012C29.735 79.056 30.2285 78.4486 30.9394 79.0664Z" fill="#2F107D"/>
<path d="M31.4505 79.0664L30.9391 78.8068C30.8879 77.0938 30.8061 75.3807 30.7908 73.665C30.7754 72.144 30.8496 70.623 30.8521 69.0994C30.8521 67.3007 30.8266 65.5045 30.8112 63.7058C30.778 59.2051 30.7166 54.7069 30.7166 50.2088C30.7166 47.4298 30.7686 44.6491 30.8726 41.8666C30.9391 40.0783 30.5606 38.6715 28.8091 37.7786C27.8809 37.3062 27.1522 36.4211 26.334 35.7229C27.9346 37.0492 30.31 37.3737 31.1922 39.6163C31.1922 52.101 31.1922 64.5874 31.1922 77.0756C31.2362 77.5735 31.3217 78.0667 31.4479 78.5499L31.4505 79.0664Z" fill="#351190"/>
<path d="M12.2734 26.1167C15.5975 28.3671 18.9369 30.607 22.2456 32.8652C23.4576 33.6932 24.6286 34.5861 25.8253 35.4608C25.3599 35.2895 24.8409 35.2012 24.4343 34.9416C21.8774 33.2701 19.3511 31.5492 16.7992 29.8699C15.3929 28.9407 13.9534 28.053 12.5291 27.1627C12.4448 26.8071 12.3604 26.4749 12.2734 26.1167Z" fill="#35118E"/>
<path d="M43.468 0.197266C44.2709 0.358191 45.0737 0.6463 45.8792 0.656682C48.2904 0.685234 50.7042 0.59958 53.1154 0.571028C56.2681 0.532095 59.4183 0.474992 62.5761 0.480183C65.9615 0.480183 69.3469 0.573624 72.7349 0.584006C74.2205 0.584006 75.7086 0.48797 77.1968 0.433463C76.7774 1.18618 76.174 1.88958 75.9745 2.6968C74.9518 6.81598 74.0108 10.9611 73.0571 15.0985C72.7221 16.5598 72.382 18.0237 72.1263 19.5109C71.9627 20.4687 71.5229 21.0345 70.5922 21.3278C65.0512 23.0902 59.5154 24.8604 53.9924 26.6825C49.0396 28.3151 44.1072 30.0152 39.1621 31.6868C38.239 31.9982 37.3313 32.3876 36.3878 32.603C35.0888 32.8989 34.6516 33.6932 34.7718 34.939C34.805 35.2816 34.7718 35.632 34.7718 35.9773L34.2604 35.1986C34.286 34.8118 34.1888 34.3498 34.3627 34.0539C34.874 33.1688 34.6414 32.6809 33.8027 32.2007C32.4066 31.3987 31.0565 30.5084 29.7116 29.6207C26.8989 27.7623 24.0863 25.8986 21.2966 24.0039C19.834 23.0124 18.4098 21.9534 16.8398 20.8347C17.2438 20.4661 17.5277 20.1598 17.8626 19.9132C20.5474 17.8887 23.2578 15.9005 25.9247 13.8552C29.6596 10.9845 33.3765 8.09041 37.0756 5.17298C38.4742 4.06986 39.8013 2.8733 41.1667 1.71827L42.3941 0.381551L43.468 0.197266Z" fill="#6E26FE"/>
<path d="M41.1671 1.71826C39.8094 2.87329 38.4823 4.06985 37.076 5.17297C33.3735 8.0904 29.6523 10.9845 25.9123 13.8552C23.2454 15.9005 20.5427 17.8887 17.8502 19.9132C17.5204 20.1728 17.2366 20.4661 16.8274 20.8347C18.4102 21.9534 19.8344 23.0124 21.2996 24.0065C24.0918 25.9012 26.8993 27.7648 29.7145 29.6233C31.0595 30.511 32.4095 31.4012 33.8056 32.2033C34.6443 32.6835 34.8847 33.1714 34.3656 34.0565C34.1917 34.3524 34.2889 34.8144 34.2633 35.2012H34.0076C34.3221 33.7788 33.7519 32.8236 32.5476 32.1046C31.2436 31.326 30.0137 30.4331 28.7275 29.6259C28.4999 29.4831 28.1599 29.5298 27.8709 29.4909L27.3595 29.2313C27.2381 29.0604 27.0973 28.9045 26.9402 28.7667C23.6162 26.506 20.31 24.2063 16.9246 22.0364C16.1447 21.5433 16.1089 21.1072 16.3646 20.4064L17.1317 19.3682L17.3874 19.1086C19.6196 18.6129 21.072 17.0321 22.4681 15.3632C22.4576 15.3549 22.4494 15.344 22.4441 15.3316C22.4389 15.3192 22.4368 15.3056 22.4381 15.2922C22.4393 15.2787 22.4439 15.2658 22.4514 15.2546C22.4589 15.2435 22.469 15.2344 22.4809 15.2282L23.5906 14.4002L24.0662 13.9149C24.46 13.8059 24.9253 13.7981 25.2322 13.5697C26.8993 12.329 28.5281 11.0364 30.1696 9.76195C32.2945 8.16567 34.4091 6.55382 36.5492 4.9809C38.0706 3.8674 39.6329 2.80581 41.1671 1.71826Z" fill="#6824FD"/>
<path d="M27.3599 29.2313L27.8713 29.4909C29.2111 30.5109 30.5331 31.5544 31.8985 32.5381C32.7576 33.1558 33.6884 33.6464 33.5349 34.9779C33.4991 35.292 33.8392 35.645 34.008 35.9798C34.1793 36.5846 34.3481 37.192 34.5194 37.7967C34.1026 37.018 33.7216 36.2056 33.2588 35.4607C32.796 34.7158 32.415 33.8411 31.7527 33.3842C27.6156 30.5395 23.4273 27.8012 19.2441 25.0473C18.9793 24.9287 18.6982 24.8517 18.4106 24.8189L15.8536 23.2615C15.649 23.3627 15.3422 23.4769 15.1683 23.3446C14.9357 23.1759 15.1172 22.758 14.928 22.4647C14.7873 22.244 14.4038 22.0442 13.3018 22.2051L17.1372 19.35L16.3701 20.3882C15.4112 21.4005 15.511 21.8339 16.838 22.7035C19.3771 24.3672 21.8906 26.0777 24.4475 27.7025C26.0149 28.7226 13.6802 22.2726 27.3599 29.2313Z" fill="#6021FB"/>
<path d="M18.9212 29.4909L14.8301 26.8954C14.669 26.6073 14.5744 26.1401 14.3187 26.0648C12.5825 25.5015 12.7027 24.1051 12.7641 22.7139L13.0198 22.4543C13.2039 23.2979 13.1041 24.5308 13.6181 24.9149C16.4947 26.9914 19.5195 28.8602 22.4933 30.7991L29.3971 35.4712L30.1641 35.9903L31.1869 37.2881C30.829 37.0674 30.4659 36.852 30.113 36.6262C28.1663 35.3768 26.223 34.1266 24.2831 32.8756C22.8717 31.897 21.4705 30.9055 20.0437 29.953C19.6863 29.7599 19.3101 29.605 18.9212 29.4909Z" fill="#4416B6"/>
<path d="M14.587 21.198C14.9297 21.9351 14.6944 23.0383 15.8655 23.2745C16.1212 23.5833 16.3181 23.9649 16.6326 24.1881C18.4225 25.4599 20.2123 26.698 22.0022 27.9465C23.0531 28.6966 24.1245 29.4208 25.1498 30.2072C25.9169 30.7964 26.6329 31.4661 27.3718 32.0994C26.7709 31.7127 26.1726 31.3207 25.564 30.9444C24.2003 30.1138 22.8426 29.2875 21.4908 28.4656C19.2944 26.9602 17.1235 25.4132 14.8836 23.9779C14.1524 23.5107 13.7151 23.0331 13.7944 22.161L14.587 21.198Z" fill="#551CE2"/>
<path d="M41.1671 1.71831C39.6329 2.80586 38.0706 3.86745 36.5646 4.98355C34.4244 6.55646 32.3098 8.16831 30.185 9.76459L30.1543 9.16761C33.4783 6.59799 36.7589 4.00501 40.1034 1.48212C40.7708 0.978574 41.6376 0.742377 42.4047 0.381592L41.1671 1.71831Z" fill="#6422FB"/>
<path d="M13.7819 22.135C13.7026 23.0201 14.1398 23.4977 14.8711 23.9519C17.111 25.3873 19.2819 26.9342 21.4783 28.4397V28.6992H20.7112L18.6657 27.4014C17.4051 26.5137 16.188 25.543 14.8635 24.7695C13.8177 24.157 13.3293 23.412 13.5569 22.2051C13.6259 22.1653 13.7027 22.1414 13.7819 22.135Z" fill="#4F1AD4"/>
<path d="M22.5009 30.7887C19.5271 28.8498 16.5022 26.994 13.6257 24.9175C13.1143 24.5464 13.2114 23.3005 13.0273 22.4569L13.2958 22.2181C13.2958 23.3135 13.1041 24.3854 14.426 25.0395C15.7479 25.6936 16.9139 26.6124 18.1489 27.4145L22.4957 30.5292L22.5009 30.7887Z" fill="#4717BE"/>
<path d="M30.1411 9.1676L30.1718 9.76458C28.5302 11.039 26.9015 12.3316 25.2343 13.5723C24.9275 13.8007 24.4672 13.8085 24.0684 13.9175C25.0272 13.0584 25.9452 12.1473 26.9552 11.3583C27.9652 10.5692 29.0749 9.89177 30.1411 9.1676Z" fill="#6322FA"/>
<path d="M22.4709 15.3658C21.0748 17.027 19.6225 18.6155 17.3877 19.1113L22.4709 15.3658Z" fill="#6322FA"/>
<path d="M12.7847 22.7139C12.7234 24.1051 12.6032 25.5015 14.3394 26.0648C14.5695 26.14 14.6769 26.6072 14.8508 26.8953L12.2938 25.5976L11.4219 25.3925L12.7847 22.7139Z" fill="#3E14A8"/>
<path d="M18.154 27.4145C16.9189 26.6124 15.7402 25.6884 14.431 25.0395C13.1219 24.3906 13.2957 23.3135 13.2957 22.2181H13.5514C13.3188 23.4251 13.8071 24.17 14.858 24.7826C16.1825 25.5612 17.3997 26.5268 18.6602 27.4145H18.154Z" fill="#4C19CC"/>
<path d="M23.5933 14.4028C23.4743 14.6276 23.3348 14.8405 23.1766 15.0387C22.9607 15.3058 22.7114 15.5432 22.435 15.7447C20.0485 17.4007 18.8238 18.1863 18.7607 18.1015C18.6976 18.0167 20.2003 16.7354 23.2686 14.2575C24.9068 12.9424 25.7437 12.3047 25.7795 12.3445C25.8153 12.3843 25.0866 13.0704 23.5933 14.4028Z" fill="#5E22F2"/>
<path d="M101.767 59.0805L98.6984 59.8591H98.187C97.4481 59.34 96.8881 59.5321 96.3793 60.2537C95.671 61.2581 94.8783 62.2003 94.1649 63.1996C91.1886 67.3733 88.2124 71.547 85.277 75.7518C84.2337 77.2443 83.3107 78.825 82.3339 80.3642C81.9146 80.7821 81.4262 81.1428 81.0887 81.6256C79.0431 84.5119 77.0282 87.4267 74.975 90.313C74.8139 90.5388 74.4304 90.6063 74.1517 90.7465C70.4415 89.5136 66.7365 88.2677 63.0212 87.0556C60.6049 86.2769 58.163 85.5345 55.7416 84.7766L44.491 81.1428L38.0986 78.8068C37.8429 78.1787 37.3673 77.5532 37.3648 76.9276C37.3187 64.988 37.3187 53.0406 37.3648 41.0853C37.3648 40.016 36.9812 39.3489 36.2576 38.6481C35.649 38.0563 35.2655 37.2231 34.7822 36.499H35.0379C35.2973 36.9386 35.5879 37.3584 35.9073 37.7552C37.3878 39.3515 37.6511 39.3671 39.6583 38.5806C41.0365 38.0381 42.4454 37.5606 43.8543 37.1063C48.0068 35.7696 52.1746 34.49 56.322 33.1351C61.8757 31.3217 67.4201 29.4779 72.955 27.6039C73.6735 27.3625 74.075 27.4482 74.5505 28.123C75.5401 29.5013 76.6677 30.7809 77.7391 32.0995L80.8074 36.5119C80.8856 36.7507 80.9885 36.9804 81.1143 37.1972C83.2144 40.1596 85.3213 43.1159 87.435 46.0662C90.2426 49.9631 93.0595 53.8685 95.8858 57.7827C96.6222 59.4335 98.7368 59.6722 101 59.0805H101.767Z" fill="#6A2CFE"/>
<path d="M78.243 0.680054C76.9645 1.64301 77.0642 3.19517 76.7472 4.5241C75.6528 9.10788 74.7016 13.7306 73.62 18.3196C73.3643 19.3993 72.789 20.396 72.362 21.4343C71.9555 21.7639 71.5949 22.2129 71.1347 22.3972C70.025 22.8073 68.8488 23.0331 67.7263 23.4147C63.9164 24.7125 60.1347 26.0803 56.3146 27.334C51.3643 28.9588 46.3885 30.5006 41.4229 32.0761C39.6125 32.616 37.792 33.1144 35.9996 33.7295C35.7694 33.8048 35.6902 34.3447 35.5419 34.6717V35.1908C34.9998 34.2798 35.1916 33.5426 36.13 33.226C39.5844 32.0631 43.0491 30.9263 46.5112 29.7868C49.4517 28.8161 52.3939 27.8505 55.3378 26.8902C60.3009 25.2731 65.2537 23.6197 70.2321 22.0416C71.8302 21.5225 72.5794 20.6115 72.9245 18.901C73.8655 14.229 75.0391 9.61921 76.1105 4.97833C76.3406 3.98682 76.402 2.93042 76.7932 2.01158C77.0259 1.45873 77.7316 1.11611 78.243 0.680054Z" fill="#762DFD"/>
<path d="M77.7314 32.0864C76.6601 30.7679 75.5324 29.4909 74.5429 28.11C74.0673 27.4481 73.6659 27.3625 72.9474 27.5909C67.409 29.458 61.8647 31.3017 56.3144 33.1221C52.167 34.4769 47.9991 35.7566 43.8467 37.0933C42.4378 37.5475 41.034 38.0251 39.6507 38.5676C37.6435 39.3462 37.3801 39.3462 35.8996 37.7422C35.5802 37.3454 35.2897 36.9255 35.0303 36.4859L35.5417 35.7073H35.7974L36.0531 36.4859L37.0758 38.3028C37.3111 38.4041 37.5872 38.6428 37.7764 38.5883C40.0777 37.9187 42.4096 37.2516 44.6981 36.4937C47.4289 35.5879 50.1214 34.56 52.8497 33.6386C58.2756 31.8217 63.7099 30.0316 69.1528 28.2683C70.797 27.7492 72.4769 27.3365 74.1517 26.8745C74.571 27.3781 75.0057 27.8738 75.4097 28.3929C76.0234 29.1716 76.6191 29.9736 77.22 30.7679L77.7314 32.0864Z" fill="#6F2FFD"/>
<path d="M34.7742 36.499C35.2575 37.2231 35.6411 38.0563 36.2496 38.6481C36.9732 39.3489 37.3593 40.016 37.3568 41.0853C37.3159 53.025 37.3159 64.9724 37.3568 76.9276C37.3568 77.5532 37.8349 78.1787 38.0906 78.8068H37.3235C37.1522 78.1631 36.8352 77.509 36.8352 76.8757C36.8045 64.9361 36.8147 53.0172 36.8019 41.0879C36.7579 40.5901 36.6724 40.0969 36.5462 39.6136L34.5006 38.0563V37.7967C34.3293 37.192 34.1606 36.5846 33.9893 35.9798V35.2012H34.245L34.7563 35.9798L34.7742 36.499Z" fill="#6728FC"/>
<path d="M35.7977 35.7202H35.542V34.682C35.8156 34.4224 36.0534 34.0591 36.3704 33.95C38.0427 33.379 39.7354 32.8729 41.423 32.346L43.4686 32.0864C43.317 32.2343 43.1446 32.3585 42.9572 32.455C40.973 33.1221 38.9632 33.7216 37.0046 34.4666C36.5213 34.6509 36.1966 35.2997 35.7977 35.7202Z" fill="#7A31FD"/>
<path d="M31.4502 86.8531C31.7059 85.7111 32.6111 85.2465 33.5443 84.9246C35.5695 84.2264 37.3568 85.3607 39.2003 85.8876C40.4072 86.2302 41.5374 86.8661 42.7008 87.3723C40.9672 86.8817 39.231 86.4067 37.5051 85.8928C36.7712 85.6748 36.0732 85.2205 35.3368 85.166C34.8944 85.1349 34.406 85.654 33.9458 85.9447C33.2503 86.3782 32.5625 86.8246 31.8337 87.2866L31.4502 86.8531Z" fill="#270D67"/>
<path d="M108.451 74.6669L108.773 75.3729L109.029 75.3287V73.2782H109.597L108.262 70.9578L106.697 71.5548L105.912 70.3946L107.687 69.1643L108.98 70.1765L109.579 69.2681L111.041 70.8254L111.374 70.6801L110.632 68.8917C111.116 69.1513 111.77 69.2681 111.854 69.5614C112.169 70.6723 113.527 71.765 112.087 72.9953C112.921 73.6364 112.691 74.7292 111.637 75.2068L109.523 76.1671C110.083 77.1716 110.517 77.9555 110.995 78.8172C111.778 78.2332 111.159 77.1405 111.197 76.0477L112.22 76.5201L112.844 75.6584L113.061 77.2365L112.064 77.4364C112.174 77.6492 112.215 77.8309 112.281 77.8387C113.445 78.0022 112.944 78.7912 112.537 79.0248C111.952 79.3623 111.179 79.4531 110.492 79.4739C109.855 79.4595 109.225 79.3421 108.625 79.1261C108.441 79.069 108.357 78.6874 108.226 78.4564C108.432 78.435 108.632 78.3752 108.817 78.2799C109.124 78.0062 109.413 77.7132 109.684 77.4026L108.883 77.143C108.669 77.9087 108.134 77.8854 107.794 77.4026C107.561 77.0626 107.694 76.4656 107.659 75.9283L106.347 76.3696L106.275 76.1256L108.451 74.6669Z" fill="#3B139B"/>
<path d="M86.4254 112.552L84.656 113.59C84.0449 113.751 83.6793 113.712 83.5795 112.884C83.4415 111.719 83.1014 110.579 82.8457 109.427L84.3799 109.188C84.1242 107.441 84.9424 106.32 86.0598 106.743C85.8578 107.262 85.9089 107.48 85.9984 107.571C86.0879 107.662 86.1339 107.657 86.3769 107.831C86.4433 107.877 86.4996 107.919 86.5328 107.947L85.1163 108.293L86.5379 109.378C86.6732 109.247 86.769 109.08 86.8143 108.896C86.8595 108.712 86.8524 108.519 86.7936 108.339C86.7352 108.181 86.6405 108.039 86.5174 107.925C86.3942 107.812 86.2461 107.729 86.0854 107.685C86.2123 107.575 86.3567 107.487 86.5124 107.426C86.9102 107.278 87.347 107.278 87.7448 107.426L88.2153 107.641C88.8724 107.945 89.1869 108.08 89.5858 108.028C89.6111 108.026 89.636 108.02 89.66 108.012C89.9637 107.923 90.2293 107.733 90.4143 107.472C90.514 107.348 90.7953 107.371 91.0228 107.319L90.6137 108.285L91.8922 107.62L91.3425 106.823C92.3857 107.054 93.4238 107.343 93.0914 105.757L94.3392 106.037C92.0533 107.854 89.7648 109.647 87.4891 111.467C87.116 111.809 86.761 112.172 86.4254 112.552Z" fill="#3A139A"/>
<path d="M79.7775 93.8612L78.7547 94.8994L74.1522 94.6398C74.1138 94.5204 74.1036 94.3154 74.032 94.292C70.9227 93.2746 67.8092 92.2666 64.6914 91.2682L60.3446 89.7108C58.9945 89.2384 57.6521 88.7427 56.2918 88.2988C50.8285 86.5096 45.3609 84.7299 39.889 82.9597C37.9406 82.2589 35.7851 82.0201 34.2637 80.3642V80.1046L38.0991 81.662C39.7356 82.2304 41.3643 82.8222 43.0085 83.3647C46.312 84.4548 49.6233 85.519 52.9294 86.5935C55.1131 87.3722 57.2763 88.1924 59.4855 88.9296C61.2038 89.5032 62.9553 89.9678 64.6914 90.4869L73.3851 93.342H73.6408C73.8735 93.5471 74.078 93.8612 74.3465 93.939C76.1594 94.5023 77.9876 94.7229 79.7775 93.8612Z" fill="#4115AD"/>
<path d="M102.022 63.2334H105.09C105.009 64.1341 105.136 65.1334 104.784 65.9042C104.472 66.5869 103.623 67.0177 103.012 67.5602L102.546 67.1761C102.891 66.5557 103.239 65.938 103.671 65.1645C103.055 65.1489 103.081 66.2728 102.37 65.5201C102.163 65.3047 101.268 66.0029 101.447 66.6284C101.779 67.7964 101.288 67.9418 100.347 67.8613C100.028 67.8328 99.6927 68.0067 99.2683 68.1209C99.8717 69.6782 99.6186 70.9578 98.11 71.6197L96.9082 69.9897L99.2095 66.6154C99.4714 66.3819 99.7207 66.1341 99.9561 65.8731C100.657 64.9958 101.334 64.1107 102.022 63.2334Z" fill="#3B139B"/>
<path d="M112.028 89.0282L110.461 88.1405C109.816 88.9633 109.387 88.7634 109.054 87.6941C108.934 87.3047 108.464 87.0348 108.182 86.6844C107.974 86.4022 107.781 86.1094 107.602 85.8071L107.114 85.9914C107.226 85.6228 107.336 85.2542 107.472 84.8156C106.607 83.7592 105.738 84.665 104.59 85.3347C105.078 84.1537 105.416 83.3413 105.82 82.3602C106.416 83.8396 106.715 83.9642 107.681 83.292L109.727 86.0614L110.238 85.4697C108.96 84.8519 109.215 83.7306 109.185 82.6405C109.371 82.6405 109.504 82.6015 109.581 82.6405C109.658 82.6794 109.727 82.8351 109.668 82.7521L111.125 82.0305L111.353 82.342C111.097 82.6794 110.819 83.0142 110.548 83.3543L112.652 85.0803C112.174 86.3375 111.962 87.6824 112.028 89.0282Z" fill="#3B139B"/>
<path d="M90.0044 79.8451L88.2145 82.9183L88.5034 83.1467C88.8589 82.7158 89.2143 82.2849 89.5518 81.88C89.764 83.2842 91.4388 84.9091 92.8912 84.9947C92.9116 84.6547 92.9321 84.3147 92.9602 83.8423C93.1469 83.9824 93.2747 84.024 93.2977 84.1018C93.4179 84.5041 93.6071 84.922 93.5867 85.3244C93.5662 85.7267 93.4435 86.3185 93.1545 86.5469C92.8017 86.8246 92.1522 87.066 92.0576 86.0952C92.0576 85.9966 90.8661 85.7474 90.6001 85.9888C89.8331 86.6792 89.1938 86.6092 88.7285 86.3107C88.4574 85.3607 88.258 84.6573 88.056 83.9539L87.7722 84.0318C87.7312 84.8104 87.6929 85.5761 87.6596 86.2224L86.1689 85.5554V85.0362L89.493 80.1047L90.0044 79.8451Z" fill="#3B139B"/>
<path d="M74.1521 94.6372L78.7547 94.8967C79.0922 95.1355 79.6624 95.3172 79.734 95.6235C80.8002 100.218 81.823 104.827 82.8458 109.435C83.1015 110.587 83.4415 111.726 83.5796 112.892C83.6793 113.72 84.045 113.759 84.6561 113.598L84.1243 114.377C83.1577 114.491 83.2984 113.626 83.1833 113.144C82.5185 110.351 81.9355 107.537 81.3039 104.734C80.5905 101.565 79.8567 98.4008 79.2123 95.5794C77.3023 95.351 75.5533 95.3406 73.9169 94.9019C71.3395 94.2089 68.8439 93.2122 66.2997 92.3842C65.6869 92.2295 65.064 92.1193 64.4357 92.0546L63.6686 91.795L63.1572 91.0164L64.6914 91.2759L74.1521 94.6372Z" fill="#381298"/>
<path d="M79.7767 93.8612C77.9868 94.7229 76.1612 94.5023 74.3483 93.9416C74.0798 93.8586 73.8753 93.5497 73.6426 93.3446L74.6654 93.6042C75.5089 93.813 76.3623 93.9784 77.2223 94.1C77.7337 94.1519 78.5443 94.17 78.7718 93.8638C80.2037 91.9275 81.5103 89.8951 82.863 87.8939C83.1187 87.6344 83.4025 87.3748 83.63 87.0893C84.3971 86.1523 85.1642 85.2049 85.9313 84.2601L85.6756 85.2984L79.7946 93.6042C79.7767 93.7002 79.7767 93.7729 79.7767 93.8612Z" fill="#4316B2"/>
<path d="M99.2103 66.6076L96.909 69.9819L95.1191 72.0583V71.2796L98.6989 66.0885H99.2103V66.6076Z" fill="#4115AD"/>
<path d="M79.7773 93.6015L85.6583 85.2957L86.1697 85.0361V85.5552C85.868 85.9498 85.5561 86.3339 85.2646 86.7362C83.7304 88.8127 82.2346 90.9177 80.6876 92.9864C80.4805 93.2641 80.0867 93.3991 79.7773 93.6015Z" fill="#3C139F"/>
<path d="M95.8859 105.282L95.1188 105.801H94.6074C94.8452 105.541 95.0856 105.263 95.3234 104.996L96.7578 103.395L95.5816 103.213C95.5688 103.044 95.5458 102.73 95.5254 102.434L97.103 102.12C97.2743 102.525 97.4763 102.99 97.6758 103.457L95.8859 105.282Z" fill="#3A139A"/>
<path d="M95.8857 105.282L97.6756 103.465C99.3785 102.211 101.079 100.955 102.79 99.7116C103.034 99.558 103.291 99.4244 103.557 99.3119C103.465 99.5714 103.373 99.831 103.283 100.091L99.7212 102.686L95.8857 105.282Z" fill="#34108B"/>
<path d="M90.0046 79.845L89.4932 80.1046L90.0046 78.8068L92.5615 75.173H92.8172C92.3288 76.0581 91.866 76.9535 91.3495 77.8205C90.9353 78.5135 90.4546 79.165 90.0046 79.845Z" fill="#3F15A9"/>
<path d="M92.8172 75.1705H92.5615C92.6459 74.737 92.7328 74.3061 92.8172 73.8727L95.1185 71.2771V72.0558L92.8172 75.1705Z" fill="#4417B6"/>
<path d="M40.6554 85.0361L49.8247 88.0055L64.6908 92.8229L74.9186 96.1971L76.4528 96.4567V96.7162C74.156 96.7708 71.8643 96.4706 69.6564 95.8259C67.4191 95.1667 65.2048 94.4139 63.0083 93.6457C60.477 92.7658 57.9762 91.795 55.4449 90.9099C53.453 90.2169 51.4356 89.6121 49.4335 88.9399C48.9758 88.7867 48.5309 88.5869 48.0808 88.4208C46.1785 87.6992 44.2863 86.9543 42.3712 86.269C41.4788 85.9498 40.5429 85.7499 39.6352 85.4904C39.5969 85.4904 39.6352 85.2048 39.6352 85.0517L40.6554 85.0361Z" fill="#280D6A"/>
<path d="M76.4531 96.7163V96.4567C77.4759 96.2361 77.5245 97.0563 77.6651 97.6845C78.8157 102.852 79.9229 108.03 81.094 113.193C81.2883 114.047 81.7435 114.841 82.0784 115.664H82.5898C81.7741 116.271 81.3446 115.877 81.1528 115.049C80.511 112.261 79.9127 109.463 79.2555 106.681C78.803 104.76 78.2635 102.863 77.7904 100.947C77.4938 99.7427 77.2637 98.5228 76.9568 97.3133C76.898 97.0927 76.627 96.9162 76.4531 96.7163Z" fill="#290D6E"/>
<path d="M83.6122 3.53516C84.7321 4.41506 85.8572 5.29236 86.9746 6.18005C89.2886 8.02031 91.5771 9.88912 93.9167 11.7034C95.1006 12.6223 96.379 13.4139 97.5757 14.3146C99.0638 15.4333 100.514 16.6039 101.976 17.7563C103.147 18.6777 104.206 19.8328 105.502 20.4972C108.752 22.1818 109.862 25.203 110.846 28.4137C111.572 30.7861 112.452 33.1091 113.27 35.4529C114.426 38.7597 115.572 42.0716 116.75 45.3732C117.615 47.7871 118.522 50.1854 119.41 52.5915C119.369 52.8511 119.397 53.1703 119.269 53.3857C119.04 53.842 118.719 54.2437 118.325 54.5641C118.149 54.6809 117.359 54.2475 117.369 54.2008C117.671 53.0172 116.699 52.9315 116.052 52.5915C115.86 52.4929 115.541 52.3942 115.41 52.4851C115.28 52.5759 115.272 52.9056 115.201 53.1262C115.078 53.4948 115.004 54.1333 114.802 54.18C113.741 54.4072 112.668 54.5667 111.588 54.6576C110.565 54.7614 110.345 54.167 110.445 53.0509C111.056 54.3487 111.056 54.3487 111.78 54.032L110.46 52.4072C110.972 52.2567 111.416 52.3916 111.879 52.5033C112.342 52.6149 112.705 53.7829 113.413 52.6798L112.184 51.9348L111.578 49.7779L108.765 51.5766C107.781 50.3074 107.126 51.7921 106.548 51.94C106.448 52.7187 106.372 53.3312 106.274 54.0943C105.047 53.1859 104.433 53.6194 104.07 54.8185L103.602 53.9646L101.767 55.1871C100.97 54.0762 100.175 52.9661 99.3809 51.857C97.0183 48.5502 94.6505 45.2486 92.3109 41.9263C92.0552 41.5629 91.9606 41.0801 91.7995 40.6519C92.2201 40.7552 92.6473 40.8281 93.078 40.8699C93.3567 40.8699 93.8886 40.7349 93.886 40.67C93.8707 39.8914 93.7735 39.1127 93.6917 38.2795L94.4716 37.7344C95.4074 38.4534 95.8958 38.4197 96.3356 37.6514C96.7114 36.9947 97.2049 36.4055 97.724 35.6839L96.31 34.817L95.7475 35.5542L92.6305 34.9702L92.7533 35.4088C92.1268 35.7358 91.4416 35.9876 90.8867 36.4159C90.4316 36.7689 90.1196 37.3295 89.7591 37.7967L86.6907 33.6438C86.6575 33.4751 86.5501 33.2752 86.6038 33.1455C86.972 32.2733 86.8902 31.5881 86.2484 30.7861C85.8214 30.267 86.095 29.4052 85.4941 28.6785C85.0389 28.1308 85.4762 26.8434 85.4583 25.8856C85.4583 25.7351 85.1438 25.5897 84.929 25.4029L84.2028 26.6254L82.9371 25.6131L81.5666 26.6358L79.7767 24.2997C79.6208 23.695 79.2347 23.0435 79.3446 22.4828C79.9353 19.4694 80.641 16.4767 81.3237 13.4814C82.078 10.172 82.8451 6.8549 83.6122 3.53516Z" fill="#792CFE"/>
<path d="M101.767 55.1871L103.613 53.9646L104.081 54.8186C104.444 53.6194 105.058 53.1859 106.285 54.0944C106.382 53.3313 106.459 52.7135 106.559 51.9401C107.137 51.7921 107.791 50.3075 108.776 51.5767L111.588 49.778L112.194 51.9349L113.424 52.6798C112.708 53.7829 112.371 52.6201 111.89 52.5033C111.409 52.3865 110.972 52.2567 110.471 52.4073L111.793 54.0321C111.069 54.3565 111.069 54.3565 110.458 53.051C110.359 54.1671 110.576 54.7615 111.601 54.6576C112.679 54.5664 113.75 54.4069 114.808 54.18C115.01 54.1333 115.084 53.4948 115.207 53.1262C115.278 52.9056 115.27 52.5838 115.416 52.4851C115.562 52.3865 115.866 52.4851 116.058 52.5916C116.705 52.9316 117.677 53.0172 117.375 54.2008C117.375 54.2475 118.155 54.681 118.331 54.5642C118.724 54.2437 119.046 53.8421 119.275 53.3858C119.403 53.1704 119.374 52.8667 119.415 52.5916C119.628 53.3261 119.84 54.0632 120.116 55.0132C118.139 55.1119 116.28 55.2494 114.419 55.2728C112.683 55.3013 110.944 55.1923 109.208 55.1845C107.375 55.1845 105.539 55.2884 103.71 55.2105C102.711 55.169 102.22 55.47 102.128 56.4823C102.112 56.6614 101.895 56.8249 101.772 57.0014H101.517C101.596 56.3993 101.683 55.8049 101.767 55.1871Z" fill="#792CFE"/>
<path d="M101.511 57.004H101.767V57.5231C101.046 58.5017 100.071 58.7846 98.8901 58.8547C97.3968 58.9403 96.7755 57.8009 95.8857 57.004L81.8224 37.2777L80.5439 34.9417L81.0553 35.2012C81.3345 35.4551 81.5952 35.7292 81.8352 36.0214C83.2262 37.9655 84.589 39.9329 85.9775 41.877C88.4577 45.3378 90.9448 48.7986 93.4387 52.2593C94.735 54.0607 96.0161 55.875 97.3636 57.6348C98.1051 58.6081 99.5933 58.5095 100.488 57.5231L101.511 57.004Z" fill="#7634FD"/>
<path d="M83.6121 3.53516C82.845 6.8549 82.0779 10.172 81.3236 13.4918C80.6409 16.4871 79.9352 19.4798 79.3445 22.4932C79.2346 23.0435 79.6207 23.695 79.7767 24.3101C78.8434 23.7184 78.7232 22.8073 78.938 21.8469C80.2983 15.8278 81.6842 9.81645 83.0547 3.79991C83.0922 3.54219 83.1076 3.28166 83.1007 3.02124L83.6121 3.53516Z" fill="#7D2EFE"/>
<path d="M95.8857 57.004C96.7756 57.8009 97.3969 58.9403 98.8902 58.8547C100.071 58.7846 101.046 58.5017 101.767 57.5231C102.342 58.4653 101.34 58.6029 101 59.0805C98.7367 59.6723 96.6221 59.4335 95.8857 57.7827V57.004Z" fill="#712FFD"/>
<path d="M98.1873 59.8591H98.6987V60.1187C97.3742 59.9785 97.0367 60.983 96.6531 61.9356C96.3322 62.2655 96.0284 62.612 95.7428 62.9738C94.1933 65.1567 92.6745 67.3552 91.1275 69.5458C89.5806 71.7365 87.9927 73.9894 86.4253 76.2112H85.6582C86.5838 74.9368 87.5171 73.6702 88.4325 72.3906C91.2452 68.4583 94.0271 64.513 96.8705 60.6067C97.1415 60.2303 97.7398 60.1031 98.1873 59.8591Z" fill="#6428F8"/>
<path d="M96.6533 61.9356C97.0369 60.9831 97.3744 59.9786 98.6989 60.1187L102.534 59.5996L101 60.3783C99.3305 60.2641 97.6761 60.1862 96.6533 61.9356Z" fill="#6227F5"/>
<path d="M18.9219 92.3038C19.8986 91.4681 20.8242 90.557 21.87 89.8199C22.5911 89.3008 23.4784 89.0412 24.2915 88.67C23.7016 89.268 23.0793 89.8322 22.4275 90.3598C21.4047 91.1099 20.3001 91.7692 19.221 92.4492C19.1776 92.4803 19.0242 92.3558 18.9219 92.3038Z" fill="#290E6D"/>
<path d="M33.4959 81.9215L34.5187 82.7001C32.2993 82.1135 30.627 83.2919 28.9292 84.4574C26.6586 86.0147 24.3574 87.5305 22.0689 89.0671C20.0233 90.4324 18.0033 91.8184 15.9322 93.1499C15.6382 93.3394 15.1933 93.2849 14.8174 93.342C15.6458 92.6671 16.4513 91.956 17.313 91.3252C18.3358 90.5777 19.3969 89.8977 20.4427 89.1891C21.0743 88.6206 22.3681 88.7193 22.2326 87.3722C23.1121 88.0055 23.2553 87.0607 23.7667 86.7233C25.4466 85.5864 27.2902 84.6884 28.9267 83.4918C30.3381 82.4665 31.7061 81.6178 33.4959 81.9215Z" fill="#2B0E71"/>
<path d="M33.4963 81.9215C31.7065 81.6178 30.3385 82.4666 28.9373 83.4918C27.3008 84.6884 25.4573 85.5864 23.7773 86.7233C23.2787 87.0607 23.1253 88.0055 22.2432 87.3722C23.1688 86.6065 24.0509 85.7811 25.0277 85.0933C26.6872 83.9279 28.3671 82.7832 30.1135 81.7658C30.7936 81.3686 31.6783 81.3401 32.471 81.1428L33.4963 81.9215Z" fill="#2C0E74"/>
<path d="M22.2453 87.3722C22.3808 88.7193 21.087 88.6207 20.4554 89.1891C20.3557 89.1346 20.2534 89.0256 20.1588 89.036C19.9139 89.072 19.6714 89.1232 19.4326 89.1891L22.2453 87.3722Z" fill="#2C0E74"/>
<path d="M95.119 71.277L92.8177 73.8726L91.7949 74.1321L92.0506 73.613L92.8177 72.5748L97.4202 66.0859L98.1873 65.0476C98.7623 64.4 99.3717 63.7848 100.013 63.2048C100.524 62.7817 101.179 62.5247 101.767 62.1925C100.143 63.0023 99.4811 64.5934 98.6987 66.0859L95.119 71.277Z" fill="#4919C1"/>
<path d="M99.21 66.6076V66.0884C99.7929 65.2838 100.345 64.448 100.977 63.6849C101.233 63.3709 101.67 63.2048 102.023 62.9738V63.2333C101.335 64.1106 100.657 64.9957 99.9566 65.8652C99.7212 66.1262 99.4719 66.374 99.21 66.6076Z" fill="#3D14A3"/>
<path d="M81.8222 2.49694H82.0779C81.6509 4.20482 81.1983 5.90752 80.7994 7.6232C79.8866 11.5659 78.9482 15.5008 78.1453 19.4642C77.9356 20.5024 77.3782 21.6808 78.2399 22.7424H77.7285C76.3784 21.1228 74.8545 21.0267 73.6374 22.4829H73.126V22.2233C73.2104 21.8781 73.2973 21.5303 73.3817 21.1851H73.6374L74.4045 20.9255C75.059 21.0138 75.3608 20.7776 75.5116 20.0638C76.0767 17.4163 76.7338 14.7922 77.3424 12.1551C78.043 9.11825 78.7001 6.07364 79.4314 3.0446C79.8022 1.51062 80.0835 1.44313 81.4949 2.29448C81.6074 2.35937 81.7148 2.42945 81.8222 2.49694Z" fill="#8534FE"/>
<path d="M43.4684 32.0864L41.4229 32.346V32.0864C46.3885 30.5109 51.3643 28.9717 56.3146 27.3443C60.1347 26.0907 63.9164 24.7176 67.7262 23.425C68.8488 23.0435 70.0275 22.8176 71.1347 22.4075C71.5975 22.2362 71.9555 21.7742 72.362 21.4446H72.6177C72.5333 21.7898 72.4464 22.1376 72.362 22.4828C69.6312 23.3939 66.8927 24.2867 64.1798 25.2211C62.3899 25.8363 60.6 26.5189 58.8101 27.1548C57.1609 27.674 55.5091 28.1931 53.8624 28.7122C50.3952 29.8352 46.9305 30.96 43.4684 32.0864Z" fill="#7A30FD"/>
<path d="M74.4077 20.9255L73.6406 21.1851C74.5381 17.2476 75.4305 13.3075 76.3331 9.37523C76.9007 6.92241 77.5323 4.48517 78.0821 2.02975C78.2815 1.14207 78.8645 1.15764 79.5216 1.19917C79.3068 1.50545 78.9898 1.78317 78.8926 2.12319C78.4937 3.49625 78.1255 4.87969 77.8187 6.27611C77.0823 9.65036 76.4251 13.0532 75.6708 16.4274C75.3308 17.9458 74.8322 19.4279 74.4077 20.9255Z" fill="#7F30FE"/>
<path d="M74.4072 20.9255C74.8317 19.4278 75.3303 17.9457 75.6704 16.4273C76.4247 13.0531 77.0818 9.65548 77.8182 6.27604C78.1199 4.87962 78.4932 3.49618 78.8921 2.12312C78.9893 1.7831 79.3064 1.50537 79.5211 1.1991L81.8224 1.97777V2.49688C81.715 2.4294 81.6076 2.35932 81.4977 2.29443C80.0862 1.44308 79.805 1.51576 79.4342 3.04455C78.7029 6.07359 78.0458 9.11819 77.3452 12.155C76.7366 14.7947 76.0795 17.4162 75.5144 20.0637C75.3635 20.7775 75.0618 21.0241 74.4072 20.9255Z" fill="#8332FE"/>
<path d="M72.3616 22.4828C72.446 22.1376 72.5329 21.7898 72.6173 21.4446L73.3844 21.1851L73.1287 22.2233C72.6659 22.7865 72.3104 23.6457 71.7223 23.8611C68.7512 24.9538 65.7314 25.9194 62.704 26.8512C61.0036 27.3703 59.2572 27.7493 57.5312 28.1931L59.3211 27.1549C63.512 25.813 67.7054 24.4788 71.8911 23.1136C72.1059 23.0461 72.2056 22.6983 72.3616 22.4828Z" fill="#7D34FE"/>
<path d="M98.1875 65.0503L97.4204 66.0886L96.6533 66.6077L97.9318 64.2717C98.2412 63.8096 98.5838 63.3684 98.8523 62.8804C99.2742 62.1018 99.9237 61.8759 100.734 61.5826C104.329 60.2849 108.011 61.0765 111.645 60.913C114.739 60.7728 117.845 60.8922 120.944 60.8974C120.512 61.0252 120.068 61.1121 119.62 61.157C114.634 61.1751 109.648 61.1103 104.664 61.1933C102.281 61.2322 99.893 61.5048 98.8088 64.2483C98.6385 64.543 98.4295 64.8128 98.1875 65.0503Z" fill="#501CD2"/>
<path d="M77.9873 22.7424H78.243L78.4987 23.002L79.7772 24.8189C80.0073 25.2627 80.2119 25.7247 80.4778 26.1452C81.0787 27.0978 81.7128 28.0296 82.3341 28.9718C82.664 29.465 82.9734 29.9763 83.3288 30.4487C84.5229 32.0398 85.7323 33.6179 86.9366 35.2012C87.4787 36.0551 87.9978 36.9272 88.5705 37.7578C90.9144 41.1528 93.2677 44.5401 95.6303 47.9195V48.1791C94.6945 46.9695 93.7356 45.7782 92.8176 44.5453C90.8411 41.8718 88.8902 39.1776 86.9366 36.499C85.1826 33.9813 83.3569 31.5103 81.6949 28.9355C80.3908 26.9187 78.422 25.2965 77.9873 22.7424Z" fill="#8436FD"/>
<path d="M78.4988 23.002L78.2431 22.7424C77.3865 21.6808 77.9388 20.5076 78.1485 19.4642C78.9514 15.5008 79.8898 11.5659 80.8026 7.62321C81.199 5.90753 81.6516 4.20484 82.0811 2.49695C82.1757 2.85254 82.411 3.23669 82.3368 3.55854C81.7129 6.67323 81.0328 9.75158 80.3833 12.8481C80.033 14.5222 79.7338 16.2068 79.3605 17.8757C79.156 18.8049 78.8082 19.6926 78.642 20.64C78.5467 21.4236 78.4988 22.2124 78.4988 23.002Z" fill="#8332FE"/>
<path d="M82.3343 28.9718C81.713 28.0296 81.0788 27.0978 80.4779 26.1453C80.2223 25.7248 80.0075 25.2628 79.7773 24.8189V24.2998L81.5672 26.6358C81.9866 27.2276 82.3982 27.8246 82.8252 28.4086C84.1088 30.1563 85.3941 31.9014 86.6811 33.6439L89.7495 37.7968L91.0279 40.1328C90.6802 39.772 90.3043 39.4372 89.9898 39.0479C88.967 37.776 87.9443 36.486 86.9368 35.2012C85.8527 33.5349 84.7941 31.8503 83.6639 30.2177C83.3264 29.7271 82.7843 29.3819 82.3343 28.9718Z" fill="#7D2FFD"/>
<path d="M99.2097 61.4165L97.4199 64.5312L87.1921 78.8069L86.6807 79.0664L87.1921 77.7686C87.977 76.6629 88.7774 75.5676 89.5419 74.4489C90.7309 72.7098 91.8969 70.9526 93.0731 69.2032L96.6528 64.0121L97.9313 61.9356L99.2097 61.4165Z" fill="#5720E0"/>
<path d="M87.1917 78.8068L97.4195 64.5312L97.9309 64.2716L96.6525 66.6076C96.3328 67.1034 96.0107 67.5991 95.691 68.0975L92.817 72.5774L92.0499 73.6157C91.8479 73.6546 91.5385 73.6157 91.4567 73.7403C90.1041 75.6766 88.7796 77.6336 87.4474 79.5855L86.6803 80.8833L86.1689 81.1428L87.1917 78.8068Z" fill="#521DD5"/>
<path d="M99.2101 61.4164L97.9316 61.9355C98.0186 61.7616 98.103 61.5903 98.1873 61.4164C98.9979 61.2425 99.811 61.0894 100.614 60.8973C101.187 60.7546 101.739 60.5339 102.309 60.3782C102.941 60.1965 103.588 59.9006 104.217 59.8954C109.965 59.8591 115.71 59.8747 121.456 59.8747C121.041 60.046 120.627 60.3678 120.213 60.3704C115.575 60.4067 110.931 60.4976 106.298 60.3471C104.168 60.2796 102.222 60.8662 100.215 61.3048C99.8852 61.3619 99.5451 61.3749 99.2101 61.4164Z" fill="#5820E3"/>
<path d="M121.456 59.8591C115.71 59.8591 109.965 59.8435 104.217 59.8799C103.58 59.8799 102.938 60.181 102.309 60.3626C101.739 60.5236 101.187 60.7442 100.614 60.8818C99.8112 61.0842 98.9981 61.2374 98.1875 61.4009C98.5352 61.1413 98.8472 60.7753 99.2359 60.6482C99.8149 60.5024 100.405 60.4069 101 60.3626L102.534 59.584C103.196 59.4566 103.865 59.3699 104.536 59.3244C110.261 59.3036 115.984 59.3244 121.709 59.3244L121.456 59.8591Z" fill="#5C23E9"/>
<path d="M64.4355 92.0442C65.0638 92.1089 65.6867 92.2191 66.2996 92.3738C68.8437 93.2018 71.3393 94.1907 73.9167 94.8915C75.5532 95.3302 77.3021 95.3406 79.2122 95.569C79.8565 98.3904 80.5904 101.554 81.3038 104.724C81.9353 107.527 82.5183 110.34 83.1831 113.133C83.2982 113.616 83.1576 114.48 84.1241 114.366L83.6127 114.885C83.3161 114.626 82.861 114.402 82.751 114.073C82.4774 113.229 82.3751 112.329 82.1731 111.459C81.7282 109.549 81.2296 107.651 80.8154 105.736C80.1608 102.694 79.5574 99.6388 78.936 96.589C78.7928 95.8856 78.4067 95.652 77.6806 95.6546C76.5069 95.6546 75.3307 95.5041 74.1545 95.4184L69.0406 93.8611L67.5065 93.342L64.4355 92.0442Z" fill="#34118C"/>
<path d="M67.5041 93.342L69.0382 93.8612L74.1521 95.6781C75.1596 95.7637 76.167 95.9246 77.1745 95.9143C77.9058 95.9143 78.274 96.1738 78.4248 96.8591C78.8697 98.9476 79.3223 101.036 79.7826 103.125C80.6059 106.844 81.465 110.556 82.2526 114.286C82.4034 115 82.7052 115.236 83.3572 115.15L82.5901 115.669H82.0787C80.8053 110.087 79.5311 104.505 78.2561 98.9225C77.6296 96.1972 77.6143 96.2024 74.9192 96.2024L64.6914 92.8281L67.5041 93.342Z" fill="#2D0E79"/>
<path d="M83.3564 115.145C82.7044 115.231 82.4027 114.994 82.2518 114.281C81.4643 110.556 80.6051 106.844 79.7818 103.12C79.3181 101.033 78.8655 98.9442 78.424 96.8539C78.2732 96.1557 77.9127 95.9013 77.1737 95.9091C76.1662 95.9091 75.1588 95.7585 74.1514 95.6729V95.4133C75.3276 95.499 76.5038 95.6521 77.6774 95.6495C78.4036 95.6495 78.7897 95.8805 78.9329 96.5839C79.5542 99.6337 80.1577 102.689 80.8122 105.731C81.2265 107.646 81.7251 109.544 82.17 111.454C82.372 112.323 82.4743 113.224 82.7478 114.068C82.8578 114.397 83.3129 114.613 83.6095 114.88L83.3564 115.145Z" fill="#321086"/>
<path d="M34.2633 80.1046V80.3641C32.9004 79.6348 31.9262 78.7601 31.9339 76.9406C31.9876 64.9023 31.9646 52.864 31.9518 40.8257C31.9078 40.3287 31.8222 39.8364 31.6961 39.354C30.5582 36.7403 27.8197 36.0862 25.8739 34.4614C25.1989 33.8956 24.4727 33.3946 23.7695 32.8651H24.2809C26.2242 34.1162 28.1675 35.3664 30.1108 36.6157C30.4636 36.8415 30.8267 37.057 31.1847 37.2776C31.3202 37.6384 31.3662 38.0796 31.6066 38.3418C32.5348 39.367 32.476 40.5869 32.4734 41.8458C32.4555 53.339 32.5041 64.8322 32.4197 76.3254C32.4172 78.0411 32.9234 79.2065 34.2633 80.1046Z" fill="#3E14A8"/>
<path d="M63.1564 91.0061L63.6678 91.7847C61.5328 91.0943 59.4054 90.3805 57.2601 89.7083C54.7901 88.9426 52.2843 88.2833 49.8296 87.4657C45.447 86.0096 41.0746 84.5145 36.7303 82.9416C34.6259 82.1837 32.7824 80.9534 31.4502 79.0612V78.5421H31.7059C33.7515 81.3427 36.6689 82.5419 39.8881 83.2141C40.2666 83.3855 40.6348 83.5931 41.0286 83.7333C45.649 85.2906 50.2694 86.8298 54.9 88.343C56.6899 88.9322 58.5284 89.4305 60.3438 89.9704L63.1564 91.0061Z" fill="#371193"/>
<path d="M39.8883 83.2193C36.6691 82.5471 33.7516 81.3479 31.7061 78.5473V39.3541C31.8322 39.8365 31.9177 40.3288 31.9618 40.8258C31.9745 52.8641 31.9975 64.9024 31.9439 76.9406C31.9439 78.7575 32.9104 79.6348 34.2732 80.3642C35.7946 82.0202 37.9501 82.259 39.8985 82.9598L39.8883 83.2193Z" fill="#3C14A0"/>
<path d="M31.4505 78.5473C31.3243 78.0641 31.2388 77.5709 31.1948 77.073C31.1812 64.5865 31.1812 52.1001 31.1948 39.6136C31.3212 40.0968 31.4067 40.59 31.4505 41.0879C31.4505 53.5726 31.4505 66.0591 31.4505 78.5473Z" fill="#371193"/>
<path d="M24.2915 32.8652H23.7801L18.9219 29.491C19.313 29.6012 19.6918 29.7526 20.052 29.9426C21.4788 30.8874 22.88 31.8867 24.2915 32.8652Z" fill="#3E14A8"/>
<path d="M27.359 29.2313C26.3848 28.733 25.362 28.3073 24.4415 27.7207C21.8845 26.0907 19.371 24.3854 16.832 22.7216C15.5049 21.8521 15.4052 21.4238 16.3641 20.4064C16.1084 21.1072 16.1442 21.538 16.924 22.0364C20.3094 24.2063 23.6105 26.506 26.9396 28.7667C27.0968 28.9045 27.2375 29.0604 27.359 29.2313Z" fill="#6422FC"/>
<path d="M34.0078 35.2012V35.9799C33.839 35.6451 33.4964 35.2921 33.5347 34.978C33.6805 33.6465 32.7677 33.1611 31.8983 32.5382C30.5329 31.5544 29.2109 30.511 27.8711 29.491C28.16 29.5299 28.5001 29.491 28.7277 29.6259C30.0062 30.4332 31.2437 31.3312 32.5478 32.1047C33.7521 32.8237 34.3223 33.7789 34.0078 35.2012Z" fill="#6623FD"/>
<path d="M34.519 37.7967V38.5754C33.8371 37.3641 33.1553 36.1529 32.4734 34.9416C32.1658 34.5632 31.8234 34.2156 31.4506 33.9034C28.482 31.8944 25.4929 29.914 22.5013 27.9335C22.2456 27.7129 22.018 27.4767 21.7547 27.2795C20.6449 26.4515 19.525 25.6365 18.4102 24.8188C18.6978 24.8517 18.9789 24.9287 19.2437 25.0473C23.4269 27.8012 27.6229 30.5395 31.7523 33.3765C32.4146 33.8307 32.8084 34.7184 33.2584 35.4529C33.7084 36.1875 34.1022 37.0129 34.519 37.7967Z" fill="#5B1EF0"/>
<path d="M18.4105 24.8188C19.5253 25.6364 20.6453 26.4514 21.755 27.2794C22.0107 27.4767 22.2664 27.7129 22.5016 27.9335H21.9902C20.2003 26.685 18.3951 25.4366 16.6206 24.1751C16.3087 23.9519 16.1092 23.5703 15.8535 23.2615L18.4105 24.8188Z" fill="#591EED"/>
<path d="M30.1717 35.9799L29.4046 35.4608C29.1824 35.1296 28.9252 34.8241 28.6375 34.5497C27.5457 33.7062 26.4206 32.9067 25.3135 32.0891C25.7026 32.2308 26.0797 32.4044 26.4411 32.6082C28.121 33.7191 29.783 34.8586 31.4502 35.9825C31.9897 36.8935 32.3707 37.9733 33.1045 38.6793C34.0097 39.5488 34.0148 40.4962 34.0148 41.5681C34.002 53.2171 34.0301 64.8634 33.9764 76.5098C33.9764 77.9166 34.314 78.9288 35.5413 79.5881C35.8746 79.8835 36.236 80.1443 36.6203 80.3668C37.4334 80.7535 38.2849 81.0598 39.121 81.405H38.0983C36.9093 80.7691 35.728 80.1202 34.5313 79.4999C33.552 78.9937 33.1915 78.2436 33.217 77.0964C33.3125 72.3465 33.356 67.594 33.3474 62.8389C33.3474 55.8542 33.2707 48.8669 33.2477 41.8796C33.2477 40.5403 33.3858 39.201 32.1073 38.264C31.8721 38.0901 31.8925 37.5865 31.6726 37.3503C31.2149 36.8572 30.6831 36.4315 30.1717 35.9799Z" fill="#4A18C6"/>
<path d="M30.1719 35.9799C30.6833 36.4315 31.2151 36.852 31.6728 37.3477C31.8927 37.5839 31.8722 38.0875 32.1075 38.2614C33.386 39.1984 33.2453 40.5377 33.2479 41.877C33.2709 48.8643 33.3399 55.8516 33.3476 62.8363C33.3476 67.5879 33.3041 72.3404 33.2172 77.0938C33.1916 78.241 33.5522 78.9911 34.5315 79.4973C35.7281 80.1176 36.9095 80.7665 38.0984 81.4024V81.662L34.263 80.1046C32.9232 79.2066 32.4169 78.0411 32.4297 76.3255C32.514 64.8323 32.4655 53.3391 32.4834 41.8459C32.4834 40.587 32.5447 39.3671 31.6166 38.3418C31.3762 38.0823 31.3302 37.6384 31.1947 37.2776L30.1719 35.9799Z" fill="#4516B8"/>
<path d="M25.3136 32.0864C26.4259 32.904 27.551 33.7035 28.6377 34.547C28.9253 34.8214 29.1825 35.1269 29.4048 35.4581L22.501 30.786V30.5265L25.3136 32.0838V32.0864Z" fill="#4717C0"/>
<path d="M35.5418 79.5854C34.3144 78.9262 33.9718 77.9139 33.9769 76.5071C34.0306 64.8608 34.0025 53.2144 34.0153 41.5655C34.0153 40.4909 34.0153 39.5461 33.105 38.6766C32.3711 37.9706 31.9902 36.8908 31.4506 35.9798C31.1796 35.6242 30.9674 35.1856 30.6222 34.9416C29.7324 34.2901 28.7684 33.7424 27.8556 33.1247C25.7231 31.666 23.6033 30.1813 21.4785 28.7122V28.4526C22.8422 29.278 24.2 30.1043 25.5517 30.9314C26.1603 31.3078 26.7586 31.7101 27.3595 32.0864L28.3823 32.6056C28.5453 32.794 28.7241 32.9677 28.9167 33.1247C30.612 34.2823 32.4964 35.2349 33.0078 37.5371C33.0743 37.8356 33.3914 38.1108 33.6496 38.3158C34.5599 39.0633 34.7875 40.0185 34.7824 41.1709C34.7517 52.9575 34.7824 64.744 34.7312 76.5305C34.7312 78.0515 35.2273 78.9911 36.5543 79.5569V79.8165L35.5418 79.5854Z" fill="#501BD6"/>
<path d="M28.3826 32.6056L27.3598 32.0865C26.6209 31.4532 25.9075 30.7887 25.1378 30.1943C24.1151 29.4157 23.0411 28.6837 21.9902 27.9336H22.5016C25.483 29.9218 28.4721 31.9022 31.451 33.9034C31.8237 34.2156 32.1662 34.5633 32.4738 34.9416L28.3826 32.6056Z" fill="#561DE6"/>
<path d="M21.478 28.7122C23.6029 30.1813 25.7226 31.6556 27.8551 33.1117C28.7679 33.7346 29.7319 34.2823 30.6217 34.9286C30.9669 35.1882 31.1791 35.619 31.4501 35.9668C29.783 34.8378 28.1261 33.6983 26.4411 32.5926C26.0797 32.3887 25.7026 32.2151 25.3135 32.0735C25.079 31.8447 24.8332 31.6281 24.5771 31.4246C23.2986 30.5083 21.9996 29.6077 20.7109 28.6992L21.478 28.7122Z" fill="#4D19CD"/>
<path d="M20.7113 28.7122C21.9897 29.6207 23.2938 30.5291 24.5774 31.4376C24.8335 31.6411 25.0793 31.8577 25.3138 32.0865L22.5011 30.5291L18.1543 27.4144H18.6657L20.7113 28.7122Z" fill="#4A18C6"/>
<path d="M95.8858 57.0039V57.7826C93.0664 53.8685 90.2469 49.9587 87.4274 46.0532C85.3069 43.1116 83.1999 40.1552 81.1066 37.1841C80.9809 36.9673 80.878 36.7377 80.7998 36.4989L81.8226 37.2776L95.8858 57.0039Z" fill="#6F2FFD"/>
<path d="M98.1867 59.8591C97.7393 60.1031 97.1409 60.2303 96.8673 60.6067C94.0266 64.513 91.242 68.4583 88.4294 72.3906C87.514 73.6702 86.5807 74.9368 85.6551 76.2113L83.0981 79.8451L82.3311 80.3642C83.3078 78.825 84.2309 77.2495 85.2741 75.7519C88.2095 71.547 91.1858 67.3733 94.1621 63.1997C94.8755 62.2004 95.6681 61.2582 96.3764 60.2537C96.8878 59.5321 97.4478 59.3478 98.1867 59.8591Z" fill="#662AFC"/>
<path d="M82.3336 80.3642L83.1007 79.8451C83.0251 80.0861 82.9249 80.3184 82.8015 80.5381C81.2162 82.7677 79.6309 84.9999 78.0149 87.2087C77.01 88.5818 75.9515 89.9159 74.9185 91.2656L74.1514 91.0061V90.7465C74.4301 90.6063 74.8136 90.5389 74.9747 90.313C77.0203 87.4268 79.0352 84.5119 81.0884 81.6257C81.4259 81.1481 81.9143 80.7821 82.3336 80.3642Z" fill="#662AFB"/>
<path d="M74.1513 90.7464V91.006H73.3842L70.8272 90.2273C70.496 90.049 70.1545 89.8913 69.8045 89.7549C65.115 88.1734 60.4273 86.6004 55.7412 85.0362V84.7766C58.1678 85.5345 60.5994 86.2691 63.0209 87.0555C66.7361 88.2677 70.4411 89.5135 74.1513 90.7464Z" fill="#6227F5"/>
<path d="M55.7418 84.7766V85.0362L50.6279 83.4788C49.9324 83.2193 49.2369 82.9597 48.544 82.7002L44.4912 81.1428L55.7418 84.7766Z" fill="#6227F4"/>
<path d="M81.8222 37.2776L80.7995 36.499L77.7311 32.0865L77.2197 30.7887L80.5438 34.9416L81.8222 37.2776Z" fill="#7231FD"/>
<path d="M37.332 78.8069H38.0991L44.4915 81.1429L37.332 78.8069Z" fill="#6227F4"/>
<path d="M41.423 32.0864V32.346C39.7354 32.8651 38.0427 33.3842 36.3704 33.95C36.0508 34.0591 35.8156 34.4302 35.542 34.682C35.6903 34.355 35.7696 33.8151 35.9997 33.7398C37.7921 33.1376 39.6127 32.6263 41.423 32.0864Z" fill="#772EFD"/>
<path d="M80.5438 34.9416L77.2197 30.7887C76.6188 29.9945 76.0231 29.195 75.4094 28.4138C75.0054 27.8947 74.5707 27.3989 74.1514 26.8954C73.5479 26.0985 72.8064 26.5579 72.1774 26.763C70.1318 27.43 68.1093 28.2165 66.0586 28.8965C61.8396 30.293 57.6053 31.6479 53.3787 33.0209L37.0755 38.3159L36.0527 36.499H36.3084V36.7585C36.3954 36.8442 36.4797 36.9299 36.5641 37.0181L36.8198 37.2777C36.9758 37.4386 37.188 37.7656 37.2775 37.7345C39.093 37.0856 40.8956 36.4004 42.7008 35.7203L49.8603 33.3843L56.5084 31.3078C56.755 31.0982 57.0285 30.9236 57.3215 30.7887C58.6485 30.376 60.0063 30.0594 61.3231 29.6155C64.7801 28.4553 68.2269 27.2795 71.6558 26.0284C72.5635 25.6962 73.3331 25.6339 74.1514 26.1115L75.1741 26.6306L77.9868 30.524C78.2425 30.9159 78.4982 31.3026 78.7539 31.6972L81.0551 35.196L80.5438 34.9416Z" fill="#7734FD"/>
<path d="M37.0762 38.3158L53.3793 33.0209C57.606 31.6478 61.8403 30.2929 66.0593 28.8965C68.1048 28.2164 70.1248 27.43 72.1781 26.7629C72.8071 26.5579 73.5486 26.0985 74.152 26.8953C72.4849 27.3573 70.7973 27.757 69.1532 28.2891C63.7103 30.0524 58.2759 31.8425 52.85 33.6594C50.1218 34.573 47.4293 35.6009 44.6985 36.5145C42.41 37.2724 40.0959 37.9395 37.7768 38.6091C37.5876 38.6558 37.3114 38.4145 37.0762 38.3158Z" fill="#7231FD"/>
<path d="M36.3092 36.499H36.0535L35.7979 35.7203C36.1967 35.2894 36.5215 34.6509 37.0098 34.4666C38.9685 33.7217 40.9782 33.1221 42.9624 32.4551C43.1499 32.3586 43.3223 32.2344 43.4738 32.0865C46.9394 30.9652 50.404 29.8405 53.8679 28.7123C55.5145 28.1931 57.1663 27.674 58.8156 27.1549H59.327L57.5371 28.1931L53.1903 29.7505C51.6254 29.7816 50.1424 30.1009 48.8434 31.0483C46.5959 31.8425 44.3509 32.6445 42.0982 33.4258C40.6177 33.9449 39.1551 34.6431 37.6312 34.8456C36.4064 35.0091 36.2581 35.5594 36.3092 36.499Z" fill="#7C33FD"/>
<path d="M37.3317 78.8068L44.4911 81.1428L48.5439 82.7002C49.2369 82.9597 49.9323 83.2193 50.6278 83.4788H49.8607C48.9709 83.2193 48.0709 82.9597 47.1938 82.6846C44.0488 81.6619 40.8986 80.6626 37.7715 79.5855C35.7566 78.8898 35.529 78.4849 35.5444 76.2657C35.5725 72.1439 35.6313 68.0248 35.6517 63.903C35.6696 59.8305 35.6517 55.7581 35.6517 51.6856C35.6517 50.3178 35.7668 48.9525 35.7643 47.5846C35.7643 45.8456 35.7242 44.1074 35.6441 42.3701C35.5827 41.0178 36.1555 39.4423 34.5088 38.5754V38.0563L36.5544 39.6136C36.431 40.1522 36.3498 40.6998 36.3114 41.2514C36.3114 46.6113 36.3779 51.9686 36.3754 57.3258C36.3754 64.025 36.3063 70.7268 36.3421 77.4259C36.3421 77.888 36.9814 78.3474 37.3214 78.8068H37.3317Z" fill="#5F25F0"/>
<path d="M37.3313 78.8068C36.9912 78.3474 36.3545 77.888 36.352 77.426C36.3162 70.7268 36.3827 64.025 36.3852 57.3258C36.3852 51.9686 36.329 46.6113 36.3213 41.2515C36.3596 40.6999 36.4408 40.1522 36.5642 39.6136C36.6904 40.0969 36.7759 40.5901 36.8199 41.0879C36.8199 53.0276 36.8199 64.9465 36.8531 76.8757C36.8429 77.5194 37.16 78.1631 37.3313 78.8068Z" fill="#6227F4"/>
<path d="M87.2713 107.797C87.0156 108.342 86.834 108.755 86.5476 109.388L85.126 108.303L87.2713 107.797Z" fill="#3A149A"/>
<path d="M74.6632 93.6016L73.6404 93.342H73.3847C72.9321 93.0643 72.5102 92.6983 72.0218 92.5218C70.5132 91.9845 68.9842 91.5096 67.4577 91.032C66.5423 90.7439 65.6141 90.4947 64.691 90.2273C63.6555 89.8795 62.6173 89.5421 61.5869 89.1891C58.868 88.2443 56.1525 87.2926 53.4404 86.334C54.1768 86.4923 54.9311 86.5935 55.6496 86.822C58.158 87.6006 60.6562 88.3975 63.1569 89.1891L76.1973 93.6016H74.6632Z" fill="#4A1AC2"/>
<path d="M39.8887 83.2193V82.9597C45.3571 84.7386 50.8248 86.5174 56.2915 88.2962C57.6518 88.7401 58.9942 89.2358 60.3443 89.7082V89.9678C58.5289 89.4279 56.7007 88.9295 54.9006 88.3403C50.2699 86.8271 45.6495 85.275 41.0291 83.7306C40.6353 83.5982 40.2671 83.3906 39.8887 83.2193Z" fill="#3C14A1"/>
<path d="M38.0986 81.6619V81.4023H39.1214L43.9796 82.9597C45.703 83.5671 47.4366 84.1511 49.1498 84.7896C50.4283 85.2672 51.671 85.8148 52.929 86.3339V86.5935C49.6228 85.5189 46.3116 84.4547 43.008 83.3646C41.3639 82.8221 39.7351 82.2303 38.0986 81.6619Z" fill="#4718BC"/>
<path d="M52.9287 86.5935V86.334H53.4401C56.1556 87.284 58.8711 88.2357 61.5866 89.1891C62.6093 89.5473 63.6551 89.8847 64.6907 90.2273V90.4869C62.9545 89.9678 61.203 89.5006 59.4847 88.9296C57.2755 88.1924 55.1124 87.3748 52.9287 86.5935Z" fill="#4417B5"/>
<path d="M64.6914 90.4869V90.2273C65.6145 90.4869 66.5426 90.7464 67.458 91.0319C68.9922 91.5095 70.5136 91.9845 72.0222 92.5218C72.5106 92.6983 72.9325 93.0643 73.3851 93.342L64.6914 90.4869Z" fill="#4718BB"/>
<path d="M74.1521 94.6372L64.6914 91.2629C67.8058 92.2683 70.9193 93.2762 74.032 94.2868C74.1036 94.3127 74.1138 94.5178 74.1521 94.6372Z" fill="#3C14A2"/>
<path d="M60.3438 89.9678V89.7083L64.6906 91.2656L63.1564 91.006L60.3438 89.9678Z" fill="#3C14A2"/>
<path d="M90.005 78.8069L89.4936 80.1047L86.1696 85.0363L85.6582 85.2958C85.7426 84.948 85.8295 84.6028 85.9139 84.2576L86.681 82.9598C86.8603 82.7896 87.031 82.6103 87.1924 82.4225C88.141 81.2182 89.0717 80.0112 90.005 78.8069Z" fill="#4015AC"/>
<path d="M86.6811 82.9571L85.914 84.2549C85.147 85.1997 84.3952 86.1471 83.6128 87.0841C83.375 87.3696 83.1014 87.6214 82.8457 87.8887L83.1014 86.8505L86.6811 81.6593L87.1925 81.3998C87.0212 81.9215 86.8525 82.4406 86.6811 82.9571Z" fill="#4718BD"/>
<path d="M74.6631 93.6016H76.1973C77.7314 94.1726 78.294 93.9702 79.171 92.7555C80.36 91.1073 81.618 89.5084 82.8453 87.8914C81.4978 89.8925 80.1912 91.9249 78.7542 93.8612C78.5266 94.1675 77.7314 94.1493 77.2047 94.0974C76.3499 93.9753 75.5016 93.8099 74.6631 93.6016Z" fill="#4718BD"/>
<path d="M86.6807 82.9572C86.852 82.4381 87.0207 81.919 87.1921 81.3998L90.5161 76.4683C90.9457 75.6896 91.3718 74.9109 91.7946 74.1322L92.8174 73.8727C92.733 74.3061 92.646 74.737 92.5617 75.1705L90.0047 78.8043C89.0714 80.0086 88.1407 81.2156 87.1921 82.4173C87.0308 82.606 86.8601 82.7862 86.6807 82.9572Z" fill="#4618BB"/>
<path d="M74.9189 96.1971C77.614 96.1971 77.6293 96.1971 78.2558 98.9173C79.5394 104.498 80.8136 110.08 82.0784 115.664C81.7435 114.841 81.2883 114.047 81.094 113.193C79.9229 108.03 78.8157 102.852 77.6651 97.6844C77.5245 97.0563 77.4733 96.2361 76.4531 96.4567L74.9189 96.1971Z" fill="#2C0E75"/>
<path d="M91.0275 40.1328L89.749 37.7968C90.1198 37.3296 90.4215 36.7586 90.8766 36.4159C91.4315 35.9877 92.1168 35.7359 92.7432 35.4089L92.6205 34.9702L95.7374 35.5594L96.2999 34.8223L97.7139 35.6892C97.2025 36.4108 96.6912 37 96.3255 37.6566C95.8857 38.4353 95.3973 38.4587 94.4615 37.7397L93.6816 38.2848C93.7634 39.1283 93.8606 39.9018 93.876 40.6753C93.876 40.7402 93.3467 40.8881 93.068 40.8751C92.6372 40.8333 92.21 40.7604 91.7895 40.6571L91.0275 40.1328Z" fill="#792DFE"/>
<path d="M86.6803 33.6438C85.395 31.8996 84.1097 30.1545 82.8244 28.4085C82.3974 27.8245 81.9857 27.2275 81.5664 26.6357L82.9267 25.6131L84.1924 26.6253L84.9186 25.4028C85.1334 25.5897 85.4453 25.7351 85.4479 25.8856C85.4658 26.8434 85.0285 28.1308 85.4837 28.6784C86.0845 29.4052 85.8109 30.2592 86.238 30.7861C86.8798 31.5803 86.9616 32.2733 86.5934 33.1454C86.5397 33.2752 86.6471 33.4829 86.6803 33.6438Z" fill="#792DFE"/>
<path d="M91.0277 40.1328L91.7947 40.6519C91.9609 41.0801 92.0504 41.5629 92.3061 41.9263C94.6457 45.2486 97.0135 48.5502 99.3761 51.857C100.169 52.9679 100.964 54.0779 101.762 55.1871C101.677 55.7919 101.59 56.3992 101.506 57.004L100.483 57.5231V57.004C101.376 56.3421 101.445 55.605 100.77 54.7095C99.6446 53.2145 98.5783 51.6753 97.461 50.1776C96.8805 49.399 96.2387 48.6696 95.6251 47.9195C93.2744 44.5245 90.9228 41.1373 88.5704 37.7578C87.9977 36.9272 87.4786 36.0551 86.9365 35.2012C87.9593 36.486 88.9591 37.776 89.9895 39.0478C90.304 39.4372 90.6799 39.772 91.0277 40.1328Z" fill="#8134FD"/>
<path d="M100.488 57.2636V57.5232C99.5934 58.5095 98.1052 58.6081 97.3637 57.6348C96.0162 55.875 94.7352 54.0607 93.4388 52.2593C90.9466 48.7986 88.4596 45.3378 85.9776 41.877C84.5892 39.9329 83.2263 37.9655 81.8353 36.0214C81.5953 35.7292 81.3347 35.4551 81.0555 35.2012L78.7542 31.7024C78.4985 31.3104 78.2428 30.9237 77.9871 30.5292L75.1745 26.6358L74.1517 26.1167L73.3846 25.0785C73.3002 24.8189 73.2133 24.5594 73.1289 24.2998C73.6403 24.78 74.1696 25.2628 74.6938 25.7429C75.4608 26.4386 76.3635 27.0252 76.9592 27.8454C80.158 32.2578 83.2775 36.7222 86.42 41.171L90.2554 46.6217L92.8123 50.2555L94.6022 52.5916C95.4844 53.8893 96.3435 55.1871 97.2538 56.4694C98.4428 58.1175 98.6985 58.1591 100.488 57.2636Z" fill="#7E39FD"/>
<path d="M100.999 60.3783C100.404 60.4226 99.8142 60.5181 99.2351 60.6638C98.8464 60.791 98.5345 61.157 98.1867 61.4165C98.1024 61.5904 98.018 61.7617 97.9311 61.9356L96.6526 64.0121L93.8399 67.3863C93.5605 67.5799 93.3032 67.8045 93.0728 68.056C91.5387 70.1169 90.0607 72.2089 88.5291 74.2646C87.5064 75.6273 86.4452 76.9484 85.3994 78.2877C85.7403 77.5956 86.0813 76.9034 86.4222 76.2113C87.9888 73.9895 89.5562 71.7677 91.1244 69.5459C92.6586 67.3552 94.1928 65.1567 95.7397 62.9739C96.0253 62.612 96.3291 62.2655 96.65 61.9356C97.6754 60.1862 99.3297 60.2641 100.999 60.3783Z" fill="#6026F2"/>
<path d="M86.4252 76.2112C86.0843 76.9033 85.7434 77.5955 85.4025 78.2876C85.1468 78.677 84.8911 79.0663 84.6354 79.4556C83.5308 81.0563 82.4228 82.6569 81.3113 84.2575C80.9406 84.5689 80.4931 84.8207 80.217 85.2023C78.8899 87.0192 77.6344 88.8984 76.2971 90.7101C76.0031 91.1046 75.686 91.8833 74.9189 91.2655C75.9417 89.9158 77.0105 88.5817 78.0154 87.2086C79.6314 84.9998 81.2167 82.7676 82.802 80.538C82.9254 80.3183 83.0256 80.086 83.1012 79.845L85.6582 76.2112H86.4252Z" fill="#6327F6"/>
<path d="M91.7951 74.1348L90.5166 76.4709C90.2098 76.6396 89.8364 76.746 89.614 76.99C88.8622 77.8257 88.1667 78.7134 87.4482 79.5855C88.7804 77.6337 90.1049 75.6766 91.4575 73.7403C91.5419 73.6183 91.8488 73.6547 92.0508 73.6157L91.7951 74.1348Z" fill="#4F1CCF"/>
<path d="M92.8174 72.5774L95.6914 68.0975C96.011 67.5991 96.3332 67.1034 96.6528 66.6076L97.4199 66.0885L92.8174 72.5774Z" fill="#4C1AC9"/>
<path d="M73.1287 24.2997C73.2131 24.5593 73.3001 24.8188 73.3844 25.0784C71.3108 25.7013 69.2294 26.2931 67.1685 26.955C63.6731 28.0789 60.1931 29.2469 56.708 30.4019C53.141 31.5803 49.5792 32.7717 46.0097 33.9449C42.8646 34.9831 39.7145 35.9928 36.5643 37.018C36.4799 36.9298 36.3955 36.8441 36.3086 36.7585C36.5259 36.3743 36.6615 35.7566 36.9708 35.645C38.4846 35.0973 40.0392 34.6846 41.5734 34.2304C42.6831 33.9034 43.8056 33.6101 44.8974 33.2493C45.8639 32.9326 46.8177 32.5666 47.7612 32.1799C49.0576 31.6608 50.3386 31.082 51.6273 30.5291L53.1615 29.7504L57.5083 28.1931C59.2343 27.7492 60.9807 27.3755 62.681 26.8512C65.7085 25.9194 68.7282 24.9538 71.6994 23.8611C72.2875 23.6456 72.6429 22.7865 73.1057 22.2233V24.2997H73.1287Z" fill="#7E37FE"/>
<path d="M73.1289 24.2998V22.4829H73.6403V23.002C73.6147 24.2583 74.3511 24.889 75.3893 25.3874C76.0875 25.6982 76.7118 26.1576 77.22 26.7345C78.2582 28.0115 79.1633 29.3949 80.112 30.7472C81.878 33.2632 83.6414 35.7861 85.4023 38.3159L87.7036 41.4306C89.1917 43.5901 90.6543 45.7678 92.1808 47.9014C92.8379 48.8202 93.6229 49.6456 94.3516 50.5151C94.3957 50.7115 94.4636 50.9015 94.5536 51.0809C95.7094 52.7733 96.8421 54.4786 98.0567 56.1241C98.4965 56.7237 99.0794 57.3596 99.9769 56.7445H100.233C99.1178 57.7308 98.811 57.723 97.9569 56.6485C97.5069 56.0826 97.1055 55.4779 96.6427 54.9224C95.983 54.1437 95.2875 53.3651 94.5971 52.5864L92.8072 50.2504L90.2503 46.6166L86.4148 41.1659C83.2672 36.717 80.1477 32.2501 76.9541 27.8402C76.3583 27.02 75.4506 26.4334 74.6887 25.7378C74.1696 25.2628 73.6403 24.78 73.1289 24.2998Z" fill="#853CFD"/>
<path d="M77.9871 22.7424C78.4218 25.2965 80.3907 26.9187 81.6947 28.9355C83.3619 31.5103 85.1824 33.9813 86.9365 36.499L87.7036 38.3159C86.7524 37.0986 85.8702 35.8189 84.8321 34.6821C84.065 33.8359 83.9781 32.3668 82.5897 32.0865C81.6155 30.511 80.6361 28.9381 79.6671 27.36C79.0994 26.4307 78.5471 25.4937 77.9871 24.5593C77.9028 23.9546 77.8158 23.3472 77.7314 22.7424H77.9871Z" fill="#883BFD"/>
<path d="M77.7318 22.7424C77.8161 23.3472 77.9031 23.9545 77.9874 24.5593L77.4761 24.2998L76.9647 23.002L76.709 22.7424C75.7782 22.0442 74.9191 22.039 74.152 23.002H73.6406V22.4829C74.8577 21.0241 76.3817 21.1228 77.7318 22.7424Z" fill="#8B3BFD"/>
<path d="M59.321 27.1549H58.8096C60.5994 26.5086 62.374 25.8364 64.1792 25.2212C66.9023 24.2868 69.6408 23.4043 72.3614 22.4829C72.2055 22.6983 72.093 23.0461 71.891 23.1136C67.7052 24.4789 63.5118 25.813 59.321 27.1549Z" fill="#7B33FD"/>
<path d="M87.7036 38.3158L86.9365 36.4989C88.8977 39.1827 90.8487 41.8769 92.8175 44.5452C93.7278 45.7729 94.6867 46.9643 95.6302 48.179C97.1285 50.3489 98.5783 52.5577 100.153 54.6679C100.688 55.3817 100.921 55.9657 100.488 56.7444H99.977C99.9156 56.3395 99.977 55.8619 99.775 55.5426C98.9465 54.1851 98.0414 52.877 97.1643 51.5532L93.8403 46.8812L93.0732 45.843L90.5163 42.2092L87.7036 38.3158Z" fill="#883BFD"/>
<path d="M100.488 56.7444C100.918 55.9657 100.688 55.3791 100.153 54.6679C98.5781 52.5603 97.1283 50.3515 95.6299 48.179V47.9194C96.2436 48.6696 96.8853 49.3989 97.4658 50.1776C98.5832 51.6752 99.6494 53.2144 100.774 54.7095C101.45 55.6049 101.38 56.3421 100.488 57.0039V56.7444Z" fill="#8436FD"/>
<path d="M82.334 28.9718C82.784 29.3819 83.3261 29.7271 83.6636 30.2177C84.7938 31.8503 85.8524 33.5348 86.9365 35.2012C85.7322 33.6179 84.5227 32.0398 83.3286 30.4487C82.9732 29.9763 82.6638 29.465 82.334 28.9718Z" fill="#8134FD"/>
<path d="M81.3116 84.2575C82.4196 82.6569 83.5276 81.0563 84.6356 79.4557C84.8913 79.0715 85.147 78.677 85.4027 78.2876C86.4485 76.9483 87.5173 75.6272 88.5324 74.2645C90.0666 72.2088 91.5522 70.1116 93.0761 68.0559C93.3065 67.8044 93.5638 67.5798 93.8432 67.3862L93.0761 69.2031C91.8999 70.9525 90.7339 72.7098 89.545 74.4488C88.7779 75.5675 87.9801 76.6628 87.1951 77.7685C86.8619 78.0264 86.5552 78.3177 86.2797 78.638C84.3646 81.3452 82.4929 84.0887 80.5624 86.7778C80.2402 87.2294 79.7058 87.5253 79.2686 87.8913C79.5805 87.3592 79.9001 86.8297 80.2018 86.2898C80.5752 85.6175 80.9408 84.9349 81.3116 84.2575Z" fill="#5D24EA"/>
<path d="M87.1918 78.8069L86.169 81.1429C85.7037 81.7425 85.1948 82.3135 84.7857 82.9598C83.8575 84.4159 82.9779 85.9032 82.0779 87.3723C81.7353 87.8031 81.3952 88.2366 81.0551 88.6701C80.3733 89.5353 79.6914 90.4004 79.0095 91.2656C78.8252 91.3427 78.6529 91.4468 78.4982 91.5745C76.9359 93.3473 76.7287 93.3914 74.4684 92.4726C74.0388 92.2961 73.5914 92.1663 73.1541 92.0158L66.4805 89.7083H67.2476L69.8045 90.2274L73.3842 91.5252C75.4298 92.8905 76.8234 92.919 77.7976 91.5563C80.7687 87.4034 83.7297 83.2401 86.6804 79.0664L87.1918 78.8069Z" fill="#541FD9"/>
<path d="M86.6809 79.0663C83.7217 83.2331 80.7607 87.3964 77.7981 91.5562C76.8239 92.9189 75.4252 92.8904 73.3848 91.5251H73.8962C74.8525 91.6185 76.2153 92.161 76.6858 91.7198C77.7751 90.6945 78.4322 89.1969 79.2658 87.8913C79.703 87.5253 80.2374 87.2294 80.5596 86.7778C82.4901 84.081 84.3618 81.3453 86.2769 78.6381C86.5525 78.3177 86.8591 78.0264 87.1923 77.7686L86.6809 79.0663Z" fill="#5821E1"/>
<path d="M93.0732 69.2032L93.8403 67.3863L96.653 64.0121L93.0732 69.2032Z" fill="#5C23E9"/>
<path d="M82.0781 87.3722C82.9782 85.8954 83.868 84.4081 84.7859 82.9598C85.1951 82.3212 85.7039 81.7502 86.1693 81.1429L86.6806 80.8833V81.662L83.1009 86.8531L82.0781 87.3722Z" fill="#4D1BCA"/>
<path d="M86.6807 81.662V80.8833L87.4478 79.5855C88.1663 78.716 88.8617 77.8283 89.6135 76.9899C89.8359 76.7434 90.2093 76.6369 90.5161 76.4708C89.4064 78.1147 88.2984 79.7586 87.1921 81.4024L86.6807 81.662Z" fill="#4C1AC9"/>
<path d="M74.152 95.4186V95.6781L69.0381 93.8612L74.152 95.4186Z" fill="#2F0F80"/>
<path d="M34.5186 38.5754C36.1729 39.4423 35.5925 41.0179 35.6539 42.3702C35.734 44.1005 35.774 45.8387 35.774 47.5847C35.774 48.9525 35.6667 50.3178 35.6615 51.6857C35.6436 55.7581 35.6615 59.8306 35.6615 63.903C35.6411 68.0248 35.5823 72.144 35.5541 76.2658C35.5388 78.485 35.7664 78.8899 37.7813 79.5855C40.9084 80.6627 44.0586 81.662 47.2036 82.6846C48.0858 82.9701 48.9935 83.2037 49.8705 83.4789L50.3819 83.998H48.8478C48.6304 83.7644 48.454 83.4036 48.1906 83.3153C44.3245 82.0513 40.4482 80.8236 36.5744 79.5855C35.2473 79.0197 34.7436 78.0801 34.7513 76.5591C34.8101 64.7726 34.7717 52.9861 34.8024 41.1995C34.8024 40.0393 34.5799 39.0842 33.6697 38.3444C33.414 38.1342 33.0944 37.859 33.0279 37.5657C32.5165 35.2557 30.6218 34.3031 28.9367 33.1533C28.7441 32.9963 28.5653 32.8226 28.4023 32.6342L32.4935 34.9702C33.1617 36.1607 33.8367 37.3624 34.5186 38.5754Z" fill="#551CE1"/>
<path d="M43.9799 82.9597L39.1217 81.4024C38.2856 81.0649 37.4341 80.7586 36.621 80.3641C36.2367 80.1417 35.8753 79.8808 35.542 79.5854L36.5648 79.845C37.654 80.2759 38.7356 80.7327 39.8377 81.1428C41.8091 81.8566 43.7933 82.534 45.7698 83.2193L43.9799 82.9597Z" fill="#4E1CCC"/>
<path d="M45.7695 83.2193C43.793 82.5236 41.8088 81.8462 39.8374 81.1428C38.7353 80.7431 37.6537 80.2863 36.5645 79.845V79.5854C40.4382 80.8235 44.3146 82.0512 48.1807 83.3153C48.4364 83.4035 48.6205 83.7643 48.8378 83.9979L45.7695 83.2193Z" fill="#541FDA"/>
<path d="M79.2658 87.8914C78.4322 89.1892 77.7751 90.6946 76.6858 91.7198C76.2153 92.1611 74.8525 91.6186 73.8962 91.5252C73.7248 91.3513 73.5561 91.1774 73.3848 91.0061H74.1519L74.9189 91.2656C75.686 91.8937 76.0031 91.1073 76.2971 90.7102C77.6344 88.8933 78.8899 87.0245 80.2169 85.2024C80.4931 84.8208 80.9406 84.569 81.3113 84.2576C80.9406 84.935 80.5749 85.6177 80.199 86.2899C79.8973 86.8298 79.5777 87.3593 79.2658 87.8914Z" fill="#5E25EE"/>
<path d="M50.3717 83.998L49.8604 83.4789H50.6274L55.7413 85.0362C60.4308 86.6074 65.1186 88.1803 69.8046 89.755C70.1546 89.8913 70.4962 90.0491 70.8274 90.2274H69.8046L67.2476 89.7083C66.7343 89.4231 66.203 89.1725 65.6572 88.9581C60.5672 87.2918 55.472 85.6384 50.3717 83.998Z" fill="#5C23EA"/>
<path d="M69.8047 90.2273H70.8275L73.3844 91.006C73.5557 91.1773 73.7245 91.3512 73.8958 91.5251H73.3844L69.8047 90.2273Z" fill="#5C23E9"/>
<path d="M36.5645 37.018C39.7146 35.9798 42.8648 34.9779 46.0098 33.9448C49.5896 32.7717 53.1412 31.5803 56.7081 30.4019C60.1933 29.2469 63.6733 28.0789 67.1687 26.955C69.2296 26.2931 71.3109 25.7013 73.3846 25.0784L74.1517 26.1166C73.3335 25.639 72.5638 25.7013 71.6561 26.0335C68.2349 27.295 64.7805 28.4604 61.3235 29.6206C60.0066 30.0645 58.6489 30.3811 57.3218 30.7938C57.0289 30.9287 56.7553 31.1033 56.5087 31.3129L49.8606 33.3894L42.7011 35.7254C42.2179 35.8396 41.7295 35.9408 41.2514 36.0706C39.7734 36.4677 38.2981 36.8778 36.8201 37.2828L36.5645 37.018Z" fill="#7B36FE"/>
<path d="M51.6505 30.5292C50.372 31.082 49.0807 31.6505 47.7844 32.18C46.8408 32.5667 45.8871 32.9327 44.9206 33.2493C43.8185 33.6101 42.696 33.9034 41.5965 34.2305C40.0623 34.6847 38.4949 35.0974 36.994 35.6451C36.6846 35.7567 36.5491 36.3744 36.3317 36.7586V36.499C36.2806 35.5464 36.4289 35.0091 37.6486 34.8456C39.1828 34.6432 40.6351 33.9372 42.1156 33.4258C44.3683 32.6472 46.6133 31.8425 48.8608 31.0483L51.6505 30.5292Z" fill="#7E36FE"/>
<path d="M36.8203 37.2777C38.2982 36.8728 39.7736 36.4627 41.2515 36.0655C41.7297 35.9358 42.218 35.8345 42.7013 35.7203C40.8961 36.4004 39.0934 37.0856 37.278 37.7345C37.1885 37.7657 36.9763 37.4386 36.8203 37.2777Z" fill="#7834FD"/>
<path d="M51.6505 30.5292L48.8379 31.0483C50.1368 30.1009 51.6199 29.7816 53.1847 29.7505L51.6505 30.5292Z" fill="#7D34FE"/>
<path d="M45.7694 83.2193L48.8377 83.9979H49.3491L51.9061 85.0362L60.344 87.8913L62.6453 88.67C62.814 88.8439 62.9853 89.0152 63.1567 89.1891C60.656 88.3974 58.1578 87.5902 55.6494 86.8219C54.9309 86.6013 54.1766 86.4923 53.4402 86.334H52.9288C51.6708 85.8148 50.423 85.2672 49.1497 84.7896C47.4365 84.1511 45.7029 83.5671 43.9795 82.9597L45.7694 83.2193Z" fill="#4D1BC9"/>
<path d="M63.1569 89.1892C62.9856 89.0153 62.8143 88.8439 62.6455 88.67L66.4809 89.7083L73.1495 92.0157C73.5867 92.1663 74.0342 92.2961 74.4638 92.4726C76.7241 93.394 76.9312 93.3473 78.4935 91.5745C78.6482 91.4468 78.8205 91.3427 79.0049 91.2656C78.8336 91.6965 78.6648 92.1299 78.4935 92.5634C77.9821 93.477 77.1844 93.7703 76.1923 93.6016L63.1569 89.1892Z" fill="#501DD0"/>
<path d="M76.1973 93.6016C77.1894 93.7704 77.9871 93.4771 78.4985 92.5634L81.0555 88.6701C81.3956 88.2392 81.7356 87.8057 82.0783 87.3723L83.101 86.8531L82.8453 87.8914C81.618 89.5084 80.36 91.1073 79.171 92.7555C78.294 93.9598 77.7314 94.1727 76.1973 93.6016Z" fill="#4A1AC2"/>
<path d="M100.488 56.7445V57.2636C98.6986 58.1591 98.4429 58.1175 97.259 56.4693C96.3487 55.1975 95.4896 53.8738 94.6074 52.5916C95.2876 53.3702 95.9831 54.1307 96.653 54.9276C97.1158 55.483 97.5172 56.0878 97.9673 56.6536C98.8213 57.7282 99.1281 57.736 100.243 56.7497L100.488 56.7445Z" fill="#823BFD"/>
<path d="M97.1645 51.5532C98.0415 52.877 98.9544 54.1851 99.7751 55.5426C99.972 55.8619 99.9158 56.3395 99.9771 56.7444C99.0822 57.3595 98.4967 56.7236 98.0569 56.124C96.8423 54.4784 95.7096 52.7732 94.5538 51.0808C94.4638 50.9014 94.3959 50.7114 94.3518 50.515C93.8404 49.6662 93.3853 48.7889 92.833 47.9739C91.5545 46.0999 90.276 44.2389 88.9311 42.4116C88.6319 42.0015 88.118 41.7523 87.7038 41.4305L86.9367 39.6136C87.0696 39.4527 87.3407 39.2684 87.3151 39.1386C87.1003 37.9965 85.7502 37.7707 85.4153 36.5197C85.1596 35.5697 83.9297 34.9234 83.2879 34.0279C82.9018 33.4932 82.8123 32.7301 82.5898 32.0864C83.9783 32.3719 84.055 33.841 84.8323 34.682C85.8704 35.8137 86.7526 37.0933 87.7038 38.3158L90.5164 42.2092L93.0734 45.843L93.8404 46.8812L97.1645 51.5532Z" fill="#8A3EFE"/>
<path d="M82.5894 32.0864C82.8119 32.7405 82.9014 33.4932 83.2875 34.0279C83.9293 34.9234 85.1591 35.5697 85.4148 36.5197C85.7498 37.7707 87.0999 37.9965 87.3147 39.1386C87.3402 39.2684 87.059 39.4527 86.9362 39.6136L85.4021 38.3158C83.6378 35.786 81.8726 33.2588 80.1066 30.7341C79.158 29.3818 78.2426 27.9984 77.2198 26.7344C76.7118 26.1628 76.0893 25.7079 75.3941 25.4002C74.356 24.9019 73.6196 24.2712 73.6452 23.0149H74.1566C74.2128 24.1803 74.7984 25.0239 75.9183 25.1433C76.4041 25.1952 76.9564 24.6086 77.4806 24.3127L77.992 24.5722C78.552 25.5066 79.1043 26.4436 79.6719 27.3729C80.6359 28.938 81.6152 30.5109 82.5894 32.0864Z" fill="#893EFE"/>
<path d="M87.7031 41.4305C88.1174 41.7524 88.6313 42.0016 88.9305 42.4117C90.2677 44.2286 91.5616 46.1 92.8324 47.974C93.3847 48.789 93.8552 49.6663 94.3512 50.5151C93.6225 49.6455 92.8375 48.8201 92.1804 47.9013C90.6539 45.7677 89.1913 43.5901 87.7031 41.4305Z" fill="#873EFE"/>
<path d="M85.4023 38.3159L86.9365 39.6137L87.7036 41.4306L85.4023 38.3159Z" fill="#873EFE"/>
<path d="M77.4754 24.2998C76.9512 24.5957 76.3989 25.1823 75.9131 25.1304C74.7932 25.011 74.2076 24.1674 74.1514 23.002C74.9185 22.039 75.7776 22.0442 76.7083 22.7424C76.0077 22.88 75.0335 22.3142 74.6807 23.6976L76.445 24.4763L76.9563 22.989L77.4754 24.2998Z" fill="#8D41FD"/>
<path d="M76.9642 23.0019L76.4528 24.4892L74.6885 23.7105C75.0413 22.3271 76.0155 22.8929 76.7161 22.7553L76.9642 23.0019Z" fill="#9142FE"/>
<path d="M66.4812 89.7082L62.6458 88.67L60.3445 87.8913C59.679 87.5549 58.9962 87.2551 58.299 86.9932C56.1818 86.3106 54.0442 85.6954 51.9066 85.0362L49.3496 83.9979H50.3724C55.4693 85.647 60.5644 87.3004 65.6579 88.9581C66.2036 89.1724 66.7349 89.423 67.2483 89.7082H66.4812Z" fill="#541FDA"/>
<path d="M81.055 88.6674L78.498 92.5607C78.6694 92.1273 78.8381 91.6938 79.0094 91.2629C79.6913 90.3977 80.3731 89.5325 81.055 88.6674Z" fill="#4E1BCD"/>
<path d="M51.9062 85.0361C54.0336 85.685 56.1713 86.3106 58.2986 86.9932C58.9959 87.2551 59.6787 87.5549 60.3442 87.8913L51.9062 85.0361Z" fill="#521ED6"/>
</svg>
